<?xml version="1.0" encoding="UTF-8"?>
<svg version="1.1" viewBox="0 0 293.94 229.45" xmlns="http://www.w3.org/2000/svg">
 <g transform="translate(36.736 -45.277)">
  <g fill="none" stroke-width="1px">
   <path d="m226.07 107.37c-0.20098 1.7268-1.0966 3.2996-1.6742 4.9393-0.76906 2.1833-0.97866 4.6832-2.3848 6.522-2.5476 3.3314-3.889 5.0882-5.7259 7.71-2.2506 3.2122-5.6928 5.0637-9.2385 6.0585-2.6444 0.74191-5.572 0.39775-8.2348-0.27491-5.2075-1.3155-7.4498-5.5589-11.859-6.0275-1.9751-0.2099-3.2108 0.96758-5.2278 2.2636-2.308 1.4831-3.2733 4.3655-5.3893 6.0396-2.2531 1.7826-4.0534 0.47719-7.5786 4.105-2.2177 2.2822-3.0126 4.4539-4.7026 8.3082-1.2419 2.8324-3.3902 4.0341-6.6343 3.3391-1.5036-0.32215-4.2009 1.7668-6.9511 1.0685-1.1346-0.28807-2.9051 0.0452-4.2407 0.54226-3.1338 1.1662-6.2994 2.9278-8.3613 5.5421-2.2738 2.8828-4.1246 3.3546-7.8039 4.1116-1.4292 0.29409-2.9303 0.7667-4.0161 1.7414-5.2414 4.7047-9.8972 4.9917-12.89 7.8049-2.5643 2.4102-1.6649 4.7959-5.4281 5.7957-1.142 0.3034-3.8264-1.3372-4.5682-0.4175-10.193 12.638-14.039 15.992-20.856 25.046-1.1483 1.525-0.34138 2.6858-1.6416 4.0077-0.71206 0.72387-1.6267 1.3283-2.1448 2.2163-1.9103 3.2742 0.07872 7.211-3.2226 10.906-1.7163 1.921-5.3332 1.3881-6.8128 3.9935-0.95101 1.6747-0.26188 3.8865-0.88152 5.71-0.66103 1.9452-2.2828 2.2141-2.9656 5.4031-0.36877 1.7223 1.0922 2.7195-0.34913 5.8837-0.56873 1.2485 0.83598 3.4397 0.34912 5.0581-0.98506 3.2746-1.9941 4.498-3.4546 6.9234-1.0595 1.7596-5.71 2.3519-5.71 2.3519" stroke="#000"/>
   <path d="m-13.086 251.5s5.5499-2.4576 8.7507-3.5343c1.44-0.48442 2.5232-2.3155 4.0309-2.1278 2.2865 0.28477 4.6026 2.1924 7.0872 2.5647 3.3242 0.49819 6.428-0.34454 10.233-0.17999 1.0658 0.0461 2.3128 0.40652 3.4809 0.50895 1.165 0.10215 2.3521-0.0802 3.5069 0.10431 2.0378 0.3255 3.8741 1.7286 5.9376 1.7528 2.1043 0.0247 3.4723-1.408 6.0953-1.6448 3.2514-0.29349 5.8316 0.0256 8.696 0.50028 1.0525 0.17439 2.1729 0.30106 3.0836 0.85657 1.4137 0.86229 1.8573 3.4776 3.3729 3.6472 3.3754 0.37794 4.2853 0.0925 4.2853 0.0925s-1.7743 0.22748-4.2853-0.0925c-1.8984-0.24192-3.8082-1.9027-5.605-1.2439-0.83957 0.30785-1.1173 1.2785-1.6225 2.1364-0.45006 0.7643-1.4758 0.86233-2.0781 1.4562-1.0017 0.98758-1.4486 2.3932-2.4704 3.4213-0.53533 0.53866-1.466 0.41618-2.2184 0.51893-2.0386 0.27838-4.1354-0.067-6.1673 0.25697-2.0798 0.33161-3.9925 1.4465-6.0816 1.7131-3.275 0.41799-5.6365 0.8559-8.8723 1.5505-0.98912 0.21232-2.029 0.19329-3.034 0.077-1.9056-0.22054-3.665-1.2115-5.5677-1.4562-2.3222-0.29865-4.6947 0.23842-7.0239 0-0.84116-0.0861-1.8276 0.019-2.484-0.51394-2.2672-1.8404-5.3107-2.6554-5.3107-2.6554" stroke="#73a198"/>
   <path d="m254.74 52.583s-1.9166 1.2814-3.0199 1.4046c-0.88071 0.09835-1.8142-0.97426-2.5985-0.56184-3.7986 1.9973-4.2998 2.7636-7.6551 6.0398-0.81782 0.79854-1.517 1.7582-1.9664 2.8092-0.51623 1.2073-0.81402 2.5503-0.77253 3.8626 0.0344 1.0897 0.38682 2.17 0.84275 3.1603 0.57024 1.2387 1.5911 2.2171 2.3176 3.371 0.67602 1.0738 1.7815 2.0371 1.8962 3.3008 0.10777 1.1872-0.3902 2.4906-1.1939 3.371-1.0946 1.1991-3.4481 0.73952-4.4245 2.0367-4.058 5.3909-6.5078 9.8926-10.324 15.31-0.54343 0.77152-1.5814 1.1398-2.0367 1.9664-0.33448 0.60724-0.32994 1.3495-0.42137 2.0367-0.10208 0.76719-0.18952 1.5452-0.14047 2.3176 0.0939 1.4782 0.82778 4.3658 0.82778 4.3658" stroke="#73a198"/>
  </g>
  <g>
   <circle cx="226.02" cy="107.36" r="1.5451"/>
   <circle cx="222.09" cy="119.02" r="1.5451"/>
   <circle cx="198.84" cy="132.15" r="1.5451"/>
   <circle cx="163.94" cy="147.11" r="1.5451"/>
   <circle cx="126.99" cy="162.49" r="1.5451"/>
   <circle cx="107.47" cy="176.68" r="1.5451"/>
   <circle cx="75.164" cy="218.75" r="1.5451"/>
   <circle cx="55.711" cy="253.93" r="1.5451"/>
   <circle cx="-7.3557" cy="258.99" r="2.3878"/>
   <circle cx="-12.974" cy="251.33" r="2.3878"/>
   <circle cx="254.81" cy="52.443" r="2.3878"/>
  </g>
  <g font-size="5.6444px" font-stretch="condensed" font-weight="500" letter-spacing="0px">
   <text transform="translate(201.07 16.541)" style="line-height:1.25;shape-inside:url(#rect952);white-space:pre" xml:space="preserve"><tspan x="33.419922" y="32.924027"><tspan font-family="Montserrat" font-size="5.6444px" font-stretch="normal" font-weight="bold">Leeds</tspan></tspan></text>
   <text transform="translate(196.24 76.27)" style="line-height:1.25;shape-inside:url(#rect952-1);white-space:pre" xml:space="preserve"><tspan x="33.419922" y="32.924027"><tspan font-family="Montserrat" font-stretch="normal" font-weight="bold">Batley</tspan></tspan></text>
   <text transform="translate(156.54 84.357)" style="line-height:1.25;shape-inside:url(#rect952-5);white-space:pre" xml:space="preserve"><tspan x="33.419922" y="32.924027"><tspan font-family="Montserrat" font-size="5.6444px" font-stretch="normal" font-weight="bold">Dewsbury</tspan></tspan></text>
   <text transform="translate(166.47 106.41)" style="line-height:1.25;shape-inside:url(#rect952-2);white-space:pre" xml:space="preserve"><tspan x="33.419922" y="32.924027"><tspan font-family="Montserrat" font-size="5.6444px" font-stretch="normal" font-weight="bold">Mirfield</tspan></tspan></text>
   <text transform="translate(91.48 111.93)" style="line-height:1.25;shape-inside:url(#rect952-8);white-space:pre" xml:space="preserve"><tspan x="33.419922" y="32.924027"><tspan font-family="Montserrat" font-size="5.6444px" font-stretch="normal" font-weight="bold">Huddersfield</tspan></tspan></text>
   <text transform="translate(59.501 127)" style="line-height:1.25;shape-inside:url(#rect952-0);white-space:pre" xml:space="preserve"><tspan x="33.419922" y="32.924027"><tspan font-family="Montserrat" font-size="5.6444px" font-stretch="normal" font-weight="bold">Slaithwaite</tspan></tspan></text>
   <text transform="translate(75.674 149.79)" style="line-height:1.25;shape-inside:url(#rect952-4);white-space:pre" xml:space="preserve"><tspan x="33.419922" y="32.924027"><tspan font-family="Montserrat" font-size="5.6444px" font-stretch="normal" font-weight="bold">Marsden</tspan></tspan></text>
   <text transform="translate(44.43 190.59)" style="line-height:1.25;shape-inside:url(#rect952-58);white-space:pre" xml:space="preserve"><tspan x="33.419922" y="32.924027"><tspan font-family="Montserrat" font-size="5.6444px" font-stretch="normal" font-weight="bold">Greenfield</tspan></tspan></text>
   <text transform="translate(24.213 227.71)" style="line-height:1.25;shape-inside:url(#rect952-06);white-space:pre" xml:space="preserve"><tspan x="33.419922" y="32.924027"><tspan font-family="Montserrat" font-size="5.6444px" font-stretch="normal" font-weight="bold">Stalybridge</tspan></tspan></text>
   <text transform="translate(-70.105 207.86)" style="line-height:1.25;shape-inside:url(#rect952-52);white-space:pre" xml:space="preserve"><tspan x="33.419922" y="32.924027"><tspan font-family="Montserrat" font-size="5.6444px" font-stretch="normal" font-weight="bold">Manchester </tspan></tspan><tspan x="33.419922" y="39.991227"><tspan font-family="Montserrat" font-size="5.6444px" font-stretch="normal" font-weight="bold">Victoria</tspan></tspan></text>
   <text transform="translate(-70.624 233.6)" style="line-height:1.25;shape-inside:url(#rect952-15);white-space:pre" xml:space="preserve"><tspan x="33.419922" y="32.924027"><tspan font-family="Montserrat" font-size="5.6444px" font-stretch="normal" font-weight="bold">Manchester </tspan></tspan><tspan x="33.419922" y="39.991227"><tspan font-family="Montserrat" font-size="5.6444px" font-stretch="normal" font-weight="bold">Piccadilly</tspan></tspan></text>
  </g>
 </g>
</svg>
