<?xml version="1.0" encoding="UTF-8"?>
<svg version="1.1" viewBox="0 0 187.7 198.31" xmlns="http://www.w3.org/2000/svg">
 <defs>
  <clipPath id="clipPath1005-6">
   <circle cx="311.89" cy="303.44" r="309.52" fill-opacity=".5" stroke-dashoffset="54.425" stroke-linecap="square" stroke-linejoin="round" stroke-width="4.2095"/>
  </clipPath>
 </defs>
 <path d="m105.43 176.32-30.607-5.5353-16.606-19.536-4.8841-25.072-7.5228-13.473-4.384-29.978 4.7435-13.205 3.6892-33.489 8.2933-12.478 18.625-14.596 22.467-4.8841 28.653 6.8378 14.652 11.396 13.024 16.932 2.6048 21.816-2.6048 19.862-2.3766 22.527-4.4872 29.496-10.631 21.925-13.438 16.571z" fill="#7b98a9"/>
 <g transform="matrix(.33834 0 0 .33834 -5.4893 -9.0817)" clip-path="url(#clipPath1005-6)" stroke-width="1.3333">
  <path d="m256.37 104.58c-29.055 1.0931-72.879-7.205-76.373 15.601-21.792 32.037-10.718 81.502-15.392 125.24-3.9694 44.303-24.844 6.3716-10.155 26.521-1.7802-39.638-23.658-11.202-14.252 6.881 0.14035 27.068 2.374 55.348 11.409 81.114 2.2617 6.4499 10.45 17.642 10.45 17.642 4.1729 25.13 0.92697 7.588 5.651 38.299 2.8431 19.206 14.05 60.185 27.725 15.368 8.1115 6.0549 11.226-29.622-1.4039-12.5 0.50599-7.9467 22.629-12.616 12.525-30.74 18.856-23.109 49.174-49.697 73.423-20.308 41.3 13.009 49.967-34.919 42.775-64.431 4.2824-29.758-18.114-68.83 15.085-87.941 15.046-13.264 48.978-0.62596 48.114-28.534-17.024-1.9338-26.484-4.8776-5.2319-7.1885 2.6528-13.856-20.106 6.7836-10.563-10.506-12.418-4.2642 9.9497-11.763 4.4726-26.288 20.563-6.2196-4.9807-20.786-10.513-21.959-47.393 12.798-65-12.193-107.75-16.269zm-14.145 5.0313c30.274 2.2149 46.672 37.022 75.445 33.852-4.2928 24.08 8.7721-15.726 18.749 3.1749 13.882 4.8683-9.4756 16.36-1.8653 14.559-6.1 5.9192 12.294 3.8299-0.5743 9.3322 6.6864 12.078-29.175-2.8825-28.015 6.2933-17.821-0.67784-72.139 10.397-66.534 11.54 32.145-7.3778 65.694-0.46231 96.237-3.5623 18.174 14.542-14.882 15.815-23.087 5.2337-16.339-3.2519-23.263 2.3-27.336 16.731-31.875-5.261-58.482 12.062-84.518 27.615-14.261 18.189-23.486-10.884-5.8823-6.6908 5.963-7.8354 0.86746-37.189 14.488-26.153-4.2198-16.439-7.1152-44.736-11.574-53.822-0.28794 30.734-31.48-18.531-8.867-26.468 13.953-8.7098 34.962-6.8376 53.333-11.635zm142.26 153.39c-7.4334 2.1558 9.1033 1.7582 0 0zm-77.984 22.803c12.776 16.392 12.049 46.046 5.8028 65.776-30.565 10.055 4.3568-40.896-6.5862-53.18 9.5064-1.1427-12.782-7.8793 0.78347-12.596zm-136.19 5.5176c18.816-0.15662 47.953 0.68801 33.953 24.431-12.161 11.171-34.144 8.7666-27.841-6.5045 8.8466-15.021-16.568-8.0582-6.112-17.926zm93.114 72.737c-29.936 20.447-8.7561 70.195 27.542 56.916 20.657 0.0879 48.619 1.8633 19.359-7.5889-13.744-1.4031-39.473-10.506-36.057-16.351 10.175-10.339-2.4672-26.875-10.843-32.975zm60.637 53.277c-7.395 2.2147 4.8538 3.8879 0 0zm-82.442-0.0213c-4.2008 14.816-17.546 31.494-27.969 36.23-2.5081 29.087 16.079 60.607 41.864 73.076 10.436 10.52 25.785 9.1833 30.127 12.205-4.9716-9.0565 24.641 5.9569 29.916-7.0691 29.1-11.746-11.148-18.223-32.578-29.5-39.157-21.403 76.647 0.57312 91.407-69.271-14.056-10.705-113.88 1.1664-132.77-15.671zm-57.722 26.107c-9.4596 1.7012 7.0142 7.2145 0 0zm27.516 0.10351c-21.368 1.911 9.0781 55.509 1.0232 26.196 25.452 2.5254 0.32259-18.989-1.0232-26.196zm-14.715 0.76758c-2.4377 7.0397 9.112 7.4459 0 0zm-3.9648 4.1445c-6.7977 1.8064 2.7936 5.4136 0 0zm-19.07 3.5722c-5.0714 36.2 4.9415 77.479 33 102.41 10.885 14.254 10.545 10.238 21.56 30.348 9.9635 8.4889 19.386 12.673 32.912 18.797 37.856 3.7897-21.556-23.505-31.437-35.719-24.471-22.227-36.639-51.392-46.124-82.344-1.8661-12.396-5.1931-22.961-9.9118-33.495zm2.8182 44.453c2.9063 3.9354-2.5392 3.7767 0 0z" fill="#627f90"/>
  <path d="m216 594.26c-10.476-17.487-31.946-57.114-29.378-64.625 15.479 25.555 34.842 35.704 44.539 55.191 10.69 10.282 21.476 8.1762 26.245 16.986 30.839-1.9577-23.155-18.756-26.607-32.199-23.884-22.484-36.426-48.932-45.715-79.534-6.1183-17.845-6.1804-17.546-11.416-38.065-3.4001-16.988-9.6149-40.358 6.302-13.378 15.413 15.599 11.634-14.449 15.464-7.3898 5.8012-4.0344 2.0342-26.936-0.73989-8.5843-15.749-9.3992 19.948-16.458 6.7199-31.834 14.352-26.611 54.038-53.435 78.564-23.13 41.301 13.008 49.963-34.928 42.773-64.441 4.2835-29.757-18.114-68.831 15.086-87.941 15.046-13.264 48.977-0.62527 48.113-28.535-17.024-1.9322-26.483-4.8787-5.232-7.1892 2.6525-13.854-20.106 6.7836-10.563-10.505-12.416-4.2634 9.95-11.764 4.4737-26.288 20.563-6.2202-10.24-20.086-10.514-21.96-15.936 7.7821-68.46 4.5806-65.023 0.38992 32.777-0.0977 62.381-24.657 95.598-12.099 27.313-12.017 58.766 21.715 44.33 42.929-1.403 91.024 7.589 79.497-57.498 64.325-25.661-1.2408-61.641 8.0448-51.696 40.925 0.66702 28.167 14.524 38.129 7.5898 79.792-7.1902 20.564-6.834 41.912-22.238 56.934 0 0 12.223 12.289 22.211 17.845 17.126-4.2104 29.84 3.9687 3.6011 8.3109-28.824 8.0592-59.95 1.0965-89.206 1.5597-27.753 2.3091 12.035 42.6 23.858 25.186-4.7877 29.428 24.243-16.053 13.767 9.4965 9.8818 10.491 12.362-15.141 16.068 6.6776 13.881 12.682 2.7398-21.097 21.4-14.912 19.663-19.079-31.32-18.273-2.7736-20.092 12.411 3.8341 38.942-6.5831 33.943 16.046 3.8547 30.375-16.61-25.928-13.563 7.7345 11.607 35.491-15.193 31.903-40.128 40.9 7.1565 18.266 35.164 11.661 55.275 10.046 22.688-14.198 25.533-41.102 35.744-69.192 3.0869-16.948 8.124-26.695 23.353-26.877 22.505-3.6235 1.4753 41.57-1.9949 57.974-10.473 56.974-35.797 52.224-50.897 67.563-54.969 37.621-75.53 26.504-134.29-10.598-8.956-0.34725-7.7263 2.8414-7.7263 2.8414 9.4883 8.22-1.6224 8.5206-1.6224 8.5206 20.563 27.397 35.96 40.042 61.435 45.464 73.837 25.154-43.179 88.298-67.636 15.728zm69.645-55.43c-6.4401-16.105 18.019 4.8061 25.468-10.326 22.335-1.5329 5.7311-17.095-9.6993-14.216-15.039-7.2097-53.778-25.105-26.955-34.789 11.969-4.1748 59.866 0.50666 22.503-9.3918-23.859 1.8155-46.211-23.12-56.541-29.882 4.6021 10.555-29.475 10.131-26.468 16.234-1.046 33.341 22.688 57.47 49.809 73.031 10.003 9.3843 16.796 1.5151 21.883 9.3398zm-72.307-67.233c-4.8676-10.497 0.149-37.201-9.6718-20.327 6.5755 1.5703 1.4664 27.137 9.6718 20.327zm114.33-6.3735c-2.665-22.56-12.263 0.30982 0.79646 1.0866l-0.79643-1.0866zm14.15-2.3116c-9.5074-9.8134 1.1028-49.378-9.2942-16.495-0.70035 5.5525-1.3378 25.363 9.2942 16.495zm-23.997-42.516c-13.886-14.145-43.691-1.9953-47.361-25.678 20.186-2.8411-8.7999-48.399-16.816-16.29-16.257 35.671 21.567 46.748 49.647 41.59 4.7932 0.54707 9.7456 1.9867 14.529 0.37819zm-99.158-15.389s26.909-25.728 26.311-40.568c-16.478 7.9522-26.897 33.92-26.311 40.568zm-46.407 80.986c1.0703-7.6596 0.47528 8.524 0 0zm136.22-30.689c-0.90825-38.151 9.7188 3.2646 0 0zm-48.427-10.58c-2.6777-20.63 19.322 4.8672 0 0zm29.725-12.509c-9.1668-9.3013-49.411-0.63886-16.473-7.1267 6.6577-2.412 21.886 4.0052 16.473 7.1267zm181.86-52.329c3.0283-6.235-0.9285 7.1297 0 0zm-64.713 0.51279c-15.05-7.546-61.625-32.483-63.217-65.406-11.215-26.773-1.1322-38.117-1.1322-38.117 14.488 5.3444 18.949-46.627 42.673-39.909 16.81 0.0872 67.022 30.424 63.063 77.54-2.1733 35.898-13.981 62.978-41.387 65.892zm-167.36-60.942c-28.705-4.7249-16.355-23.817 0.97212-20.62 42.459-7.9558-93.032-8.0061-16.366-13.163 21.729 0.0238 50.804-4.4349 58.825 5.2073-9.3865 21.084-46.576 14.727-43.431 28.576zm-51.845-30.992c-15.225-6.4162 0.5218-23.206-6.667-20.437 13.352-30.726 47.489-46.966 79.375-50.236 37.243-7.0101 43.549 36.68 26.189 58.825-25.1 11.403-4.7247-7.165-8.4366-15.891-9.9252 5.7447-2.4686 9.4134-25.627 4.6438-15.816 8.012-40.874 10.149-26.483-0.58849-16.76 1.6867-18.822 31.587-38.35 23.685zm75.847-45.461s43.445-4.9716 15.4-16.803c-32.005-4.3943-67.774 6.9834-86.431 32.228-4.6976 10.364 1.8428 4.678-6.3672 15.637 2.2783 2.5701 7.054-3.807 14.805-10.281 19.866-23.653 49.994-21.33 62.593-20.781zm-95.265-82.68c5.5578-18.91 7.189-67.382 26.735-62.645 22.381 1.9853 74.325-4.8793 94.639 18.923-15.861-11.183-57.75-12.823-82.478-5.6119-30.492-3.0462-31.389 39.148-36.655 60.419-1.7437 23.904-1.4012 47.876-5.4778 71.615-0.95411 10.942-0.0532 52.308-11.768 48.455-0.2673-42.612 7.3179-99.121 15.004-131.16z" fill="#486576"/>
  <path d="m240.76 558.21c-23.486-15.405-24.902-39.646-14.514-38.368 25.715-4.3234 51.457 50.19 82.037 21.442 0.6139-6.3993 31.392 23.504 33.693-4.4898 5.4773 3.7536 20.127-18.745 14.967 1.4506 10.445-25.284 35.578-24.709 46.197-49.691 13.078-23.316 25.195-49.079 23.729-76.67-5.8202-20.537-17.39 30.258-21.553 7.3887-16.071 22.709-12.913 54.503-35.233 75.365-16.648 24.679-48.135 15.531-72.168 6.9414-6.9277-23.326 48.249-5.698 48.744-34.73-3.6815-14.618-1.9402-41.287 7.7779-12.569 6.4065-18.051-3.0099-28.479-24.933-24.13-15.019-6.061-21.035 25.152-22.457 1.2601-43.101-3.3008-68.178-1.7418-60.77-9.6929 29.519-0.14369 59.029 3.972 88.36-2.6918 16.148-0.53589 25.467-11.027 2.7489-7.1481-20.566 5.1314-36.144-1.3296-33.569-24.323 5.347-9.2912 28.521-29.724 31.525-48.914 7.2716-23.636-14.648-47.152-6.1066-72.589-5.7806-28.063 2.8235-48.91 38.031-50.225 38.11-8.8082 51.457 17.289 68.077 6.0857-27.489-23.286-0.3204-50.902 3.3758-74.357 9.1891-45.95-45.207-34.371-72.772-39.64-18.966-1.2388-66.795 22.577-67.995 10.059 24.492-31.122 119.88-11.177 120.99-27.661 23.897 9.2165 37.508 23.304 40.071 49.995 7.2824 41.729-3.0066 94.652 7.8927 135.89 0.77826 14.478 9.1038 42.341 8.076 21.264 6.5963-6.8939 13.432-64.001 16.352-38.995 18.421 36.658-32.755 172.52-20.582 101.69-6.942-57.014-7.0026 37.002-15.013 59.59-0.0667 21.699-15.385 74.938-32.092 68.626-3.9472-18.234-22.249 26.217-36.665 31.632-35.71 59.749-126.44 34.138-100.16 46.197 28.722 6.711 53.897 3.5484 84.172 5.6722 26.348-27.918-8.5036 15.559 11.745 1.6201 10.46-20.641 37.728-15.872 38.171 3.2425-41.831 54.297-152.37 16.863-180.15-18.526zm124.57-107.13s16.904-25.193-0.31739-32.909c-22.868 2.6446-14.262 3.4272 0.0111 6.6088 5.9677 5.6428 3.0225 9.7786 2.059 22.093zm50.417-73.338c32.304-12.023 24.859-53.228 29.971-78.737-15.514-29.63-53.624 24.526-63.944-2.0881-13.739 2.3512-25.876-13.449-4.524-5.7917 12.174 14.29 52.202-3.3478 19.917-3.9558-18.785-2.5726-42.846-8.027-55.837-8.8342 11.18 8.3467 11.576 13.676 3.0182 17.105-1.7994 27.196 11.46 53.541 38.075 61.855 17.921 9.8757 19.197 26.941 33.324 20.447zm11.253-92.852c-11.348-22.063-35.315-12.302-33.314-19.871 15.86-0.69679 11.407-37.458-16.792-22.458-16.719 9.4807-0.49119 11.054-3.9162 23.137 18.694-2.4717-43.329 18.578-8.7835 12.232 21.241-2.3659 41.581 7.9526 62.806 6.9596zm26.101-6.5176c-0.21972-15.458 1.2518-36.404-14.193-37.118-20.68-20.259-44.49-22.184-72.853-18.893-39.26 16.907 25.994 9.7045 34.343 13.55 50.932 13.53 37.418 57.589 52.703 42.461zm-93.662 292.47c-1.9339-8.6261 4.4887 3.0053 0 0zm-160.31-78.536c-23.223-33.664 10.769-0.95548 0 0zm122.53-27.084c-4.6362-23.027 14.788 6.135-0.7759 0.95377zm12.109-6.4228c-4.3576-30.729 16.262 17.436-0.69055 4.8608zm-118.95-48.47c-8.2881-21.675 28.808-54.223 35.394-46.882-6.1278 17.281-31.551 47.166-35.394 46.882zm76.018-35.052c-31.514-3.2441 4.1378-10.329 3.6171 1.3146-1.2057-0.43818-2.4114-0.87637-3.6171-1.3146zm-37.023-87.675c-15.614-7.2757-69.742 7.8606-37.559-17.951 22.329-13.938-4.043 5.4466 12.089 2.6275 1.4196-2.5296-16.577 19.673 36.06 6.3498-13.9-3.8231-16.369-23.066-14.893-16.396-12.389-6.6748 34.771 11.411 18.928-2.1692 23.755-3.7947 4.2094 19.205-1.5051 26.126-4.3353 0.79533-8.7364 1.0593-13.121 1.4127zm-67.657-13.539c5.2528-17.082 18.775-39.069 42.754-44.919 16.55-5.8869 56.144-11.911 60.698 6.0408-24.966 20.817-60.931-5.2847-83.278 26.545-12.743 2.9445-10.989 21.073-20.174 12.333zm-31.894-1.6962c-9.2622-31.785-12.475-1.8721-11.712-37.58 0.0821-12.362 0.17322-12.474 1.7316-32.798 1.7953-17.701 1.638-16.494 4.5269-39.396 5.7276-46.851 21.624-38.936 14.762-29.272 26.917-28.504 5.7062 19.212 3.6634 32.102-4.1544 19.067-0.1735 45.826-4.9302 73.502-5.03 17.875 3.0195 25.314-8.0419 33.442zm4.2238-150.66c9.1445-8.9107 3.6074-16.645 15.436-28.411 18.545-24.393 5.9598 19.397 8.7469 16.072-11.332 26.101-33.86 53.227-24.183 12.338zm21.509-1.526c2.1256-8.016 17.221-46.216 8.0876-23.738-13.968-19.76 41.815-33.308 53.787-33.274 17.712 7.793 45.332 41.319 47.794 53.432-23.504-23.247-62.23-11.029-84.408-15.023-17.389-13.512-13.594 19.906-25.26 18.602z" fill="#2f4c5d"/>
  <path d="m102.6 519.48c-178.9 49.454-39.429-18.729 56.013-45.567 9.9724-15.642 14.047-13.011 12.921 5.0105 10.546 222.19-159.65 11.597-68.934 40.557zm316.71 67.152c5.786-6.0407 7.6533-19.404-3.5935-9.5307 6.1558-26.1-28.737-9.7958-37.729 3.8486-11.934 5.4054 9.9506-21.092-10.233-4.938-26.788-5.9403-59.707 6.7572-82.165-7.1551-53.004-13.229 61.883 5.9586 101.38-48.852 13.723-8.457 32.596-61.772 37.335-35.457 19.797-21.331 29.639-45.374 30.815-76.075 2.2864-24.969 3.0938-52.912 13.869-75.904 8.2786-10.659 1.8054 33.803 4.4454 43.413-8.5758 27.305-12.264 70.907-17.041 75.245-0.60903 28.966-2.8656 167.81-37.087 135.41zm-57.976-133.07c4.7821-15.491 6.4824-34.32-15.879-29.878 18.5-16.001 63.279 0.20073 29.849 21.828-4.2139 3.4736-9.674 4.706-13.97 8.0502zm-39.567-61.504c-0.5299-21.579 25.707-53.578 23.163-15.679 25.796-26.456 1.684 27.193-9.0021 16.647-3.1978 3.9937-12.329 4.7751-14.161-0.96847zm154.23-73.514c-9.7975-27.521-12.496-57.352-17.439-85.866-22.789-53.704-12.091-100.34-11.014-113.76 31.18-9.117 43.218 83.65 32.091 74.284 2.1482 8.6006-10.09 40.028-12.697 29.99 0.15973 8.6965 0.13698 55.064 10.15 56.842 1.546-13.356 18.774-45.175 11.841-14.317 16.237 16.832-23.797 25.813-11.638 44.052-9e-3 -0.26663-0.75673 11.692-1.2951 8.7785zm-62.666-33.893c-14.845-1.8365-31.865-11.704-6.574-7.1304 29.101 4.8477-20.803-13.152 7.0223-7.4852 10.023 5.8905 25.906 20.634-0.44824 14.616zm-203.91-1.9c5.4157-6.3721 41.862-22.183 31.96-2.8961 9.397-13.64 39.033 2.851 11.095 1.8983-16.112 5.1548-26.819-4.7377-43.055 0.99777zm237.78-0.62321c-15.545-18.189-31.495-53.287-61.978-45.158-15.858 8.6831-57.491-8.1522-21.254-16.019 31.021-5.7618 62.284 1.4895 80.981 21.251 11.042 0.95868 13.693 45.616 2.2519 39.925zm-97.31-3.1316c10.602-8.631 35.168-11.381 11.035-0.19841-3.3935-0.79116-7.8604 3.0983-11.035 0.19841zm23.333-1.7778c8.3322-16.22 31.611 8.8908 0 0zm-152.41-37.085c11.297-10.859 51.862-22.938 54.239-5.6538-12.986 4.9858-55.695 10.071-54.239 5.6538zm-59.077-107.32c4.3238-7.2657 6.4026-9.7961 8.3359-14.153-20.398-21.183 45.099-64.02 17.996-22.218 3.8216 18.518-20.974 37.753-26.332 36.371zm137.34-11.586c-27.029-18.642-36.262-43.251-54.925-52.859-6.9991 5.5041-4.7278 31.29-11.692 12.262-10.183 9.3436-65.045 9.6104-27.49-15.609 27.849-18.75 13.288 0.26107 14.158 12.088 55.252-63.367 125.36 22.629 171.64 7.9126 20.648 1.9976-0.35986-14.926 16.929 0.82268 8.2951 8.8994 32.06 23.037 6.1694 14.949-14.984-10.493-7.3397 7.4164-23.346 0.75719-59.044-0.49637-62.349 13.011-71.364 15.153-7.2081 8.5732-13.53 9.6109-20.075 4.5234z" clip-path="none" fill="#153243"/>
  <path d="m178.59 584.02c44.933 56.24 68.731 3.3057-6.3346-98.023-2.0896 9.859-55.517 94.92 6.3346 98.023zm271.84-84.269c-2.8755-15.37-0.10185-48.406 18.692-23.186 176.3 44.838 97.017 175.33-36.069 113.89 15.208-16.467 19.277-71.931 17.377-90.708zm-78.748-60.666c-9.0682-19.654 28.646-17.272 5.4347-1.2932-1.5801 2.2302-3.0394 2.2694-5.4347 1.2932zm-120.34-1.4346c-24.687-22.71 12.741-12.796 0 0zm76.759-60.568c5.2316-19.366 19.241-8.225 1.1855-0.4727-0.49949 2.4937-0.97952 0.39057-1.1855 0.4727zm145.3-92.992c-6.8727-26.926-5.8336-43.937-7.6923-62.575 11.835 10.716-1.8844-31.698 13.935-28.315-12.366-16.32 9.0919-7.9528-8.5447-18.5-0.33846-6.3108-17.503-23.293-1.5112-13.649-6.0748-7.6287-17.082-34.423-14.15-27.174 50.69 42.527-9.8495-15.206-9.342-15.562 3.9116-16.123-39.05-20.58-46.619-40.422 8.2413 12.191-24.435 10.254-37.356 7.8099-20.421-8.5617-29.819-9.3084-52.654-21.921-25.714 1.9648-53.302-19.726-84.767 7.2514-17.468 22.151 7.0723-26.057-11.727-8.9648 7.5264-11.392 30.929-26.395 41.663-25.28l11.793-3.0972c32.899-10.701 68.832-7.7217 101.79 1.1428 26.572 10.795 59.789 24.439 78.725 51.163 14.663 12.619 14.835 12.826 20.306 27.564 10.257 5.5453 15.799 47.621 9.6412 48.669 6.4436 8.436-10.944 2.7839 2.5748 12.749 4.9678 21.931 9.6667 52.012 7.4886 80.316-6.4716 9.7476-6.9731 25.182-13.556 28.794zm-232.68-4.0334c5.9048-14.465 21.938-7.5311 5.027 0.29939l-1.9596 0.42996zm146.44-1.1776c-0.95936-11.924-27.118-1.7617-2.8272-10.822 14.567-1.4294 48.697 14.043 14.901 8.5778-4.0982 0.14176-8.2483 0.68535-12.074 2.2441zm75.091-109.1c-8.2923-7.0677 5.058 5.2614 0 0z" fill="#082536"/>
 </g>
</svg>
