<?xml version="1.0" encoding="UTF-8"?>
<svg version="1.1" viewBox="0 0 199.31 30.113" xmlns="http://www.w3.org/2000/svg">
 <g transform="translate(-11.038 -177.4)" stroke-width=".084667">
  <g fill="#2862a1">
   <path d="m57.822 183.36c0.02452-0.0836 0.24346-1.095 0.48653-2.2475l0.44195-2.0955h0.57608c0.42181 0 0.56734 0.0283 0.54347 0.10583-0.01793 0.0582-0.05716 0.22013-0.08716 0.35983l-0.05456 0.254 0.24635-0.26637c0.29567-0.31969 0.6295-0.50206 1.0705-0.5848l0.32704-0.0613-0.05816 0.43841c-0.1011 0.76216-0.15226 0.83226-0.61405 0.84153-0.42702 9e-3 -0.70199 0.15705-0.97972 0.52905-0.08953 0.11991-0.27529 0.76592-0.43672 1.5188l-0.28093 1.3101-0.6126 0.025c-0.55561 0.0227-0.60846 0.0109-0.56802-0.127z"/>
   <path d="m46.882 181.92c-0.05692-0.87492-0.12673-1.886-0.15515-2.2469l-0.05167-0.65616h1.2905l0.02308 1.5404 0.02308 1.5404 0.6308-1.5404 0.6308-1.5404h1.2322l0.04616 3.0593 1.2848-3.0169 0.60643-0.0249c0.33354-0.0137 0.60643-4e-3 0.60643 0.0218 0 0.0257-0.49544 1.037-1.101 2.2474l-1.101 2.2007h-1.1847v-1.5833c0-0.98677-0.02993-1.553-0.07944-1.5028-0.04369 0.0442-0.36459 0.74718-0.71311 1.5621l-0.63367 1.4817-1.2512 0.0488z"/>
   <path d="m75.698 183.49c-0.09313-0.0501-0.24963-0.18566-0.34777-0.30118l-0.17843-0.21004-0.10456 0.52284h-1.1679l0.19724-0.91017c0.10848-0.50059 0.39889-1.8721 0.64536-3.0478l0.44812-2.1376 0.5715-2e-4c0.66787-2.3e-4 0.64711-0.0527 0.40217 1.0158-0.09074 0.39582-0.16596 0.79225-0.16716 0.88096-2e-3 0.14642 0.01149 0.14937 0.14599 0.032 0.66291-0.57824 1.801-0.58753 2.3004-0.0188 0.37455 0.4266 0.47164 0.87625 0.35442 1.6414-0.05314 0.34685-0.18778 0.82978-0.29921 1.0732-0.25673 0.56079-0.83802 1.1974-1.2761 1.3974-0.37927 0.17325-1.2515 0.2088-1.524 0.0621zm1.065-1.0276c0.40502-0.27295 0.63094-0.64868 0.7481-1.2442 0.11236-0.57114 0.0732-0.79828-0.18656-1.0821-0.22148-0.24198-0.75641-0.25579-1.1281-0.0291-0.5459 0.33287-0.91063 1.6789-0.58826 2.1709 0.26489 0.40428 0.72068 0.47711 1.1548 0.18454z"/>
   <path d="m67.358 183.59c-0.72028-0.13718-1.1166-0.70495-1.1138-1.5957 0.0046-1.4978 0.90248-2.8195 2.0816-3.0643 0.56778-0.11787 0.98882-0.0206 1.3315 0.30776 0.13243 0.12687 0.24078 0.2041 0.24078 0.17161 0-0.0499 0.2382-1.1777 0.38316-1.8141 0.03991-0.17522 0.09081-0.1905 0.63445-0.1905 0.32508 0 0.59105 0.0175 0.59105 0.0389s-0.28575 1.3805-0.635 3.0203-0.635 2.9938-0.635 3.009c0 0.0153-0.2601 0.0277-0.578 0.0277h-0.578l0.07846-0.53456-0.32906 0.26196c-0.41586 0.33106-0.94743 0.4617-1.4721 0.36178zm1.522-1.174c0.36361-0.26869 0.61444-0.82306 0.6599-1.4585 0.03814-0.53307 0.02511-0.59136-0.17753-0.794-0.30225-0.30225-0.87113-0.30642-1.2246-9e-3 -0.2762 0.23241-0.57578 0.85614-0.65792 1.3698-0.06663 0.41668 0.13178 0.9305 0.40356 1.0451 0.26383 0.11124 0.73708 0.0384 0.99661-0.15337z"/>
   <path d="m62.575 183.59c-1.0111-0.26022-1.4195-0.9499-1.2326-2.0816 0.27105-1.6413 1.2672-2.6194 2.6719-2.6236 1.2961-4e-3 1.8898 0.74983 1.6818 2.135l-0.07311 0.48684-1.5401 0.0231c-1.4255 0.0213-1.5438 0.035-1.5909 0.1833-0.14273 0.44971 0.2698 0.93687 0.7929 0.93633 0.31348-3.3e-4 0.85642-0.26771 0.85642-0.42178 0-0.0505 0.26198-0.0859 0.635-0.0859 0.34925 0 0.635 0.0199 0.635 0.0442 0 0.14213-0.48359 0.73646-0.74754 0.91874-0.61933 0.42767-1.5095 0.63456-2.0888 0.48548zm1.9328-3.1398c-0.01818-0.36717-0.27834-0.59455-0.68023-0.59455-0.39798 0-0.73297 0.21361-0.95527 0.60915l-0.18438 0.32806 1.8345-0.0482z"/>
   <path d="m54.184 183.58c-0.49497-0.11632-1.0227-0.59451-1.1412-1.034-0.16984-0.63006 0.05907-1.7696 0.49467-2.4625 0.493-0.78418 1.2085-1.182 2.1371-1.1884 0.77986-5e-3 1.1901 0.1732 1.5104 0.65719 0.19135 0.28916 0.22497 0.4306 0.22325 0.93927-0.0011 0.32937-0.0302 0.70277-0.06463 0.82978l-0.06261 0.23093-3.0881 0.0462-0.02565 0.26334c-0.01818 0.18666 0.03949 0.34076 0.19803 0.52917 0.188 0.22342 0.28278 0.26582 0.5942 0.26582 0.29097 0 0.43264-0.0545 0.65982-0.254 0.26369-0.23152 0.34282-0.254 0.89412-0.254h0.60483l-0.1222 0.23284c-0.18848 0.35914-0.73055 0.84175-1.1522 1.0258-0.47041 0.20533-1.1985 0.28105-1.6599 0.17261zm2.0532-2.9144c0.06707-0.17479-0.12772-0.62133-0.31468-0.72139-0.22295-0.11932-0.64497-0.0994-0.92132 0.0435-0.20956 0.10837-0.59664 0.59681-0.59664 0.75288 0 0.0294 0.40124 0.0535 0.89166 0.0535 0.71917 0 0.9012-0.0249 0.94098-0.12852z"/>
   <path d="m42.267 183.58c-0.49464-0.12347-0.77993-0.3256-0.99898-0.70777-0.16563-0.28899-0.19846-0.46574-0.19835-1.068 8.4e-5 -0.64323 0.0301-0.7826 0.27573-1.2815 0.33391-0.67827 0.7831-1.1585 1.34-1.4326 0.34675-0.17067 0.54328-0.20483 1.1782-0.20483 0.94864 0 1.3362 0.17058 1.651 0.72675 0.28862 0.50985 0.29339 1.4987 0.0107 2.2151-0.24919 0.63153-0.89662 1.3416-1.434 1.5728-0.48401 0.20822-1.3637 0.29504-1.8243 0.18006zm1.5392-1.1704c0.41365-0.29454 0.65-0.87839 0.65-1.6057 0-0.55081-0.02268-0.63968-0.19988-0.78316-0.28228-0.22858-0.84099-0.21378-1.2058 0.0319-0.44 0.29637-0.68994 0.82312-0.72778 1.5338-0.03323 0.62401 0.01902 0.76644 0.35543 0.96901 0.23934 0.14412 0.82755 0.068 1.128-0.14591z"/>
   <path d="m79.167 184.83c0.09901-0.44026 0.10347-0.44498 0.46735-0.49436 0.39825-0.0541 0.7631-0.3759 0.7631-0.67316 0-0.0898-0.13335-1.117-0.29633-2.2826-0.16298-1.1657-0.29633-2.1759-0.29633-2.245 0-0.0998 0.12916-0.12562 0.62706-0.12562h0.62706l0.04883 0.40216c0.02686 0.22119 0.09192 0.93557 0.14457 1.5875 0.05265 0.65194 0.10252 1.1933 0.11081 1.203 0.0083 0.01 0.37463-0.70467 0.81409-1.5875l0.79902-1.6051h0.61561c0.33859 0 0.61562 0.0134 0.61562 0.0298 0 0.0717-2.9094 5.1914-3.1436 5.5318-0.38231 0.55566-0.67466 0.70307-1.3951 0.70345l-0.60171 3.2e-4 0.09997-0.4445z"/>
   <path d="m35.184 185.21c-7.62e-4 -0.0349 0.29117-1.4446 0.64882-3.1327l0.65027-3.0692h1.1284l-0.03848 0.27516-0.03848 0.27517 0.20131-0.1806c0.58562-0.52537 1.5202-0.64067 2.0973-0.25876 0.42664 0.28234 0.60194 0.67372 0.60069 1.3412-0.0035 1.8582-1.1296 3.197-2.6099 3.1027-0.49677-0.0316-0.57034-0.0611-0.78048-0.31284l-0.23201-0.27791-0.08739 0.40978c-0.04806 0.22537-0.15579 0.74315-0.23939 1.1506l-0.152 0.74083h-0.57359c-0.31547 0-0.57424-0.0286-0.57505-0.0635zm3.3015-2.7961c0.59242-0.42896 0.8903-1.76 0.50384-2.2513-0.22225-0.28254-0.74645-0.30561-1.1637-0.0512-0.49811 0.30369-0.907 1.5123-0.68937 2.0377 0.20415 0.49287 0.85725 0.62103 1.3493 0.26478z"/>
  </g>
  <g fill="#213464">
   <path d="m134.07 192.32c-0.99332-0.52786-0.97361-2.0218 0.033-2.4995 1.0442-0.4955 2.2725 0.33067 2.147 1.4441-0.0492 0.43614-0.24646 0.74446-0.65381 1.0217-0.36065 0.24545-1.0971 0.26173-1.5262 0.0337z"/>
   <path d="m72.77 192.28c-0.88588-0.59699-0.91285-1.7433-0.05596-2.3781 0.15943-0.11811 0.4017-0.18351 0.762-0.2057 0.44809-0.0276 0.57292-2e-3 0.82257 0.16739 0.47784 0.32461 0.67935 0.69663 0.67935 1.2542 0 0.85391-0.53477 1.3547-1.4467 1.3547-0.35452 0-0.54837-0.049-0.76131-0.19252z"/>
   <path d="m137.63 195.27v-6.5193h2.54l0.0113 5.4398c6e-3 2.9919 0.0199 5.9256 0.0305 6.5193l0.0191 1.0795h-2.6009z"/>
   <path d="m133.56 201.72c-0.0118-0.1014-0.0124-1.6106-2e-3 -4.9953l0.01-3.1538h2.54v8.2127h-1.27c-0.6985 0-1.2733-0.0286-1.2774-0.0635z"/>
   <path d="m113.42 195.32v-6.4638l1.2835-0.0556c3.8911-0.16843 5.7594 0.0477 6.9459 0.80365 1.0748 0.68474 1.5792 1.7473 1.4846 3.1274-0.11359 1.6573-1.2059 2.7039-3.1541 3.0223l-0.79579 0.13005 0.32215 0.38872c0.17718 0.21379 1.2661 1.5317 2.4197 2.9287l2.0976 2.54-1.7223 0.023c-0.94728 0.0126-1.7623 8e-3 -1.8112-0.0111-0.0489-0.0187-0.96431-1.1653-2.0343-2.5479l-1.9454-2.5138-0.0224 2.5461-0.0224 2.5461h-3.0455zm5.3163-1.2931c0.50293-0.1391 1.0398-0.56978 1.2038-0.9657 0.14158-0.34182 0.0643-1.0554-0.14491-1.3379-0.43885-0.59254-1.0614-0.80798-2.3535-0.8145l-0.93133-5e-3 -0.023 1.6254-0.023 1.6253 0.44631 0.0328c0.61881 0.0454 1.2962-0.0142 1.8256-0.16063z"/>
   <path d="m104.1 195.27v-6.5193h2.54v13.039h-2.54z"/>
   <path d="m85.468 201.72c-0.0047-0.0349-0.01734-1.5494-0.02798-3.3655-0.01947-3.3222-0.03317-3.5013-0.35158-4.5955l-0.05611-0.19282 2.5186 0.047 0.13028 0.41174 0.13028 0.41175 0.25072-0.20968c0.28721-0.2402 0.84048-0.53316 1.3392-0.70911 0.47418-0.1673 1.5666-0.16208 2.0845 0.01 0.90163 0.29947 1.6144 1.2561 1.7777 2.386 0.04596 0.31791 0.08432 1.7686 0.08525 3.2238l0.0017 2.6458h-2.616l-0.02551-2.7344c-0.02779-2.9789-0.03081-2.9976-0.53505-3.328-0.24364-0.15964-0.79031-0.17428-1.0735-0.0288-0.37794 0.19423-0.74778 0.62668-0.93349 1.0915-0.17428 0.43624-0.18992 0.63281-0.2176 2.7349l-0.02983 2.2648h-1.2215c-0.67184 0-1.2254-0.0286-1.2302-0.0635z"/>
   <path d="m72.269 197.68v-4.1063h2.54v8.2127h-2.54z"/>
   <path d="m42.636 195.27v-6.5193l2.921 8e-3 1.7357 2.5099c2.2939 3.3172 4.3231 6.2309 4.3907 6.3046 0.02989 0.0326 0.04352-1.939 0.0303-4.3815l-0.02404-4.4408h2.7998v13.039h-2.9378l-2.6696-3.7888c-1.4683-2.0839-2.8685-4.1032-3.1116-4.4873-0.24312-0.38417-0.44774-0.69852-0.45472-0.69855-7e-3 -4e-5 0.01206 0.37144 0.04232 0.8255 0.03026 0.45405 0.05883 2.4734 0.0635 4.4874l0.0085 3.6618h-2.794z"/>
   <path d="m125.8 201.8c-0.89483-0.29-1.5524-0.96149-1.9086-1.9491-0.21906-0.60739-0.29939-2.1544-0.15139-2.9156 0.32041-1.6479 1.521-2.8607 3.3055-3.3394 0.79993-0.21457 3.086-0.21093 4.0315 6e-3l0.68715 0.15796 0.052 3.7367c0.0286 2.0552 0.0761 3.8605 0.10562 4.0119l0.0536 0.27516h-2.2206v-1.0492l-0.27517 0.25717c-0.43551 0.40704-0.75148 0.59598-1.3131 0.78516-0.65366 0.2202-1.7258 0.23057-2.3667 0.0229zm2.7054-2.4377c0.23659-0.16628 0.44499-0.42117 0.6134-0.75024 0.24227-0.4734 0.25651-0.55861 0.28391-1.6991l0.0288-1.2007-0.27226-0.0545c-0.46567-0.0931-1.1452-0.0601-1.5258 0.0742-0.53087 0.18731-0.85614 0.46867-1.1364 0.98299-0.20649 0.379-0.25291 0.57448-0.27888 1.1744-0.027 0.6239-5e-3 0.77037 0.16524 1.1007 0.26234 0.50897 0.62838 0.69693 1.2763 0.65538 0.37133-0.0238 0.57253-0.0912 0.8456-0.2831z"/>
   <path d="m96.509 201.8c-0.64864-0.23097-1.0869-0.5713-1.4652-1.1379-0.43214-0.64714-0.59174-1.1816-0.65123-2.1807-0.12319-2.0692 0.67055-3.644 2.2333-4.431 0.99583-0.50149 1.4957-0.59954 3.0751-0.60314 1.0771-2e-3 1.5543 0.0333 2.0841 0.15624l0.68713 0.15942 0.0536 3.4812c0.0295 1.9147 0.0773 3.7194 0.10621 4.0104l0.0526 0.52917h-1.0685c-0.79316 0-1.071-0.0273-1.0783-0.10583-5e-3 -0.0582-0.0186-0.14394-0.0294-0.1905-0.0108-0.0466-0.0255-0.23108-0.0326-0.41002l-0.0129-0.32534-0.42743 0.38429c-0.60472 0.5437-1.1963 0.75237-2.2396 0.78997-0.66685 0.024-0.94017-3e-3 -1.287-0.12625zm2.4783-2.2932c0.18956-0.0861 0.46473-0.3022 0.61147-0.48023 0.42501-0.5156 0.52554-0.93653 0.52554-2.2003v-1.1173l-0.26458-0.0529c-1.609-0.32181-2.7924 0.54949-2.928 2.1558-0.07116 0.84357 0.23877 1.5489 0.77953 1.7741 0.29351 0.1222 0.91812 0.0835 1.276-0.079z"/>
   <path d="m57.664 201.84c-0.53908-0.1778-0.82123-0.35145-1.2103-0.74493-1.1326-1.1453-1.3692-3.5726-0.5172-5.3076 0.49259-1.0031 1.5726-1.8249 2.8705-2.1843 0.79209-0.21932 3.1611-0.2212 4.0905-3e-3 0.36382 0.0853 0.67641 0.19962 0.69465 0.254 0.01823 0.0544 0.04441 1.861 0.05817 4.0147l0.02502 3.9159-1.0372-3e-5c-1.0162-2e-5 -1.0374-4e-3 -1.0469-0.19052-0.0054-0.10477-0.01862-0.2286-0.02944-0.27517-0.01082-0.0466-0.02547-0.19297-0.03257-0.32534l-0.0129-0.24068-0.42743 0.38429c-0.60718 0.54591-1.1967 0.75307-2.2396 0.78702-0.54499 0.0177-0.96734-0.0122-1.1853-0.0841zm2.415-2.3627c0.42517-0.21509 0.87587-0.75973 1.0177-1.2298 0.14713-0.4877 0.21138-2.4361 0.08295-2.5155-0.20159-0.12459-1.1694-0.1494-1.6192-0.0415-0.35814 0.0859-0.54027 0.1976-0.88053 0.53997-0.45486 0.45767-0.61391 0.82652-0.69412 1.6097-0.07668 0.74869 0.27534 1.5447 0.77196 1.7456 0.33744 0.13651 0.93378 0.0875 1.3212-0.10847z"/>
   <path d="m79.047 201.95c-0.64293-0.12607-1.5466-0.61129-2.0041-1.0761-0.77215-0.78443-1.1333-1.8016-1.1333-3.1919 0-1.361 0.32739-2.3001 1.0837-3.1087 0.69807-0.74629 1.5572-1.1145 2.8231-1.2101 1.3549-0.10225 2.6192 0.27766 3.4702 1.0428 1.3746 1.2359 1.6549 4.1592 0.56398 5.8808-0.52784 0.83297-1.5057 1.4679-2.5611 1.663-0.5787 0.10698-1.6973 0.10706-2.2425 1.7e-4zm1.9037-2.2682c0.71195-0.32339 1.0142-0.93614 1.0072-2.0422-0.0036-0.57732-0.04411-0.80141-0.20464-1.1329-0.49723-1.0268-1.9108-1.276-2.7092-0.4776-0.74442 0.74442-0.7324 2.6508 0.02122 3.3634 0.48547 0.45901 1.2527 0.57676 1.8854 0.28935z"/>
   <path d="m67.675 201.96c-0.841-0.21275-1.4892-0.79414-1.7084-1.5324-0.10522-0.3543-0.13178-0.90998-0.13178-2.7567v-2.313h-1.3547v-1.778h1.3547v-2.032h2.4553v2.032h2.4553v1.7734l-2.413 0.047v1.9473c0 1.7047 0.01897 1.9854 0.15225 2.2531 0.08374 0.16817 0.24745 0.34915 0.36382 0.40217 0.35584 0.16213 1.0046 0.11444 1.5152-0.11137 0.25839-0.11428 0.4976-0.21905 0.53158-0.23284 0.07025-0.0285 0.11079 1.2977 0.05006 1.6376-0.03176 0.17779-0.14583 0.27089-0.55914 0.45637-0.4457 0.20002-0.65188 0.23692-1.4559 0.26052-0.51514 0.0151-1.0801-9e-3 -1.2554-0.0532z"/>
  </g>
  <g fill="#2862a1">
   <path d="m194.62 192.27c-0.48886-0.27096-0.58596-1.0116-0.18516-1.4124 0.41138-0.41138 1.1818-0.31994 1.4742 0.17495 0.24585 0.41619 0.15507 0.89461-0.22874 1.2055-0.21543 0.1745-0.77275 0.19127-1.0603 0.0319z"/>
   <path d="m184.38 192.27c-0.3848-0.21328-0.54541-0.77318-0.33809-1.1786 0.1662-0.32498 0.43348-0.47751 0.83676-0.47751 0.5869 0 0.93134 0.35906 0.93134 0.97085 0 0.45812-0.37264 0.80439-0.86132 0.80039-0.20149-2e-3 -0.45741-0.0535-0.56869-0.11515z"/>
   <path d="m194.27 197.72v-4.064h1.6933v8.128h-1.6933z"/>
   <path d="m187.67 198.38c-8.4e-4 -3.0474-0.0466-4.0324-0.21377-4.559-0.0478-0.15072 1e-3 -0.16114 0.75598-0.16114h0.80712l0.0562 0.42333c0.0309 0.23284 0.0752 0.42334 0.0985 0.42334s0.18811-0.1317 0.36628-0.29267c0.54112-0.48887 0.97086-0.66349 1.7363-0.70553 0.72057-0.0396 1.6433 0.14841 1.6433 0.3348 0 0.0516-0.0437 0.42228-0.0972 0.82367l-0.0972 0.7298-0.50955-0.25257c-1.0918-0.54113-2.2932-0.30385-2.7401 0.54117-0.19462 0.36803-0.1967 0.40227-0.1967 3.2373v2.8654h-1.6087l-8.4e-4 -3.4078z"/>
   <path d="m184.03 197.72v-4.064h1.6933v8.128h-1.6933z"/>
   <path d="m147.03 195.27v-6.5193h7.2813v1.4393h-5.4217l0.0227 2.0532 0.0227 2.0532 4.8683 0.045v1.5214h-4.826v4.4873h6.096v1.4393h-8.0433z"/>
   <path d="m156.26 198.34c-2e-3 -2.5499-0.0339-3.6941-0.11372-4.1063l-0.11062-0.5715h1.5763l0.0562 0.42333c0.0309 0.23284 0.0709 0.42334 0.0889 0.42334s0.23217-0.13091 0.47593-0.29091c0.72113-0.47332 1.4014-0.65697 2.4329-0.6568 1.3701 2.6e-4 2.1074 0.34405 2.5732 1.2 0.46908 0.86185 0.49618 1.0746 0.53692 4.2139l0.0376 2.8998h-1.7085l-4e-3 -2.7305c-3e-3 -2.0587-0.0316-2.8087-0.11708-3.0482-0.36802-1.0313-1.4763-1.5456-2.6164-1.2142-0.60175 0.17494-0.99455 0.51572-1.2527 1.0868-0.19635 0.43443-0.20182 0.51068-0.22766 3.1756l-0.0265 2.7305h-1.598l-3e-3 -3.5348z"/>
   <path d="m176.79 201.88c-1.0276-0.22183-1.6835-0.80025-2.0062-1.7693-0.17634-0.52956-0.18943-0.73964-0.21842-3.5055l-0.0308-2.9422h1.5937l0.0557 1.5376c0.0306 0.84567 0.0561 2.0744 0.0565 2.7305 8.5e-4 1.0781 0.0202 1.2346 0.20256 1.6262 0.33034 0.70947 0.97541 1.0802 1.8796 1.0802 1.1306 0 1.8638-0.67424 2.0604-1.8944 0.0488-0.30268 0.0889-1.5695 0.0893-2.8152l6.5e-4 -2.2648h1.6087v3.5021c0 3.1416 0.0412 3.998 0.21981 4.5655 0.0438 0.13934-0.0182 0.14939-0.78398 0.127l-0.83159-0.0243-0.1406-0.8852-0.43834 0.29655c-0.24109 0.1631-0.686 0.37422-0.98868 0.46916-0.61393 0.19256-1.8104 0.27791-2.3283 0.16609z"/>
   <path d="m207.26 201.95c-0.62984-0.071-1.3277-0.29706-1.787-0.57876-0.26342-0.16156-0.27008-0.18003-0.22192-0.61449 0.0273-0.24636 0.0762-0.47745 0.1086-0.51353 0.0324-0.0361 0.26581 0.0291 0.51868 0.14488 0.56729 0.25971 1.5361 0.43372 1.9655 0.35302 0.46377-0.0872 0.82173-0.43875 0.87862-0.86302 0.0873-0.65065-0.2449-1.0447-1.4569-1.7283-1.5287-0.86222-1.9714-1.4408-1.8794-2.4559 0.0768-0.84703 0.64183-1.592 1.4971-1.9739 0.58576-0.26156 1.6186-0.29308 2.3471-0.0716 0.85711 0.26055 0.87181 0.27945 0.77075 0.99128l-0.0846 0.59618-0.40411-0.2c-0.49552-0.24523-1.2842-0.36319-1.6862-0.2522-0.39335 0.10861-0.85396 0.57477-0.85396 0.86426 0 0.45827 0.23742 0.71242 1.3365 1.4307 1.6557 1.0821 2.1227 1.7161 2.0285 2.7545-0.0789 0.8697-0.53707 1.5551-1.2713 1.9016-0.53032 0.25026-0.9999 0.30625-1.806 0.21532z"/>
   <path d="m199.9 201.92c-1.5254-0.37058-2.5293-1.5183-2.7665-3.1627-0.24348-1.6879 0.43403-3.4966 1.6432-4.3867 0.9876-0.72703 2.36-1.0225 3.5822-0.77132 1.2028 0.24723 1.7285 0.81921 1.8018 1.9605 0.13133 2.0465-1.2524 3.0257-4.2835 3.0312l-1.2117 2e-3 0.0577 0.34668c0.12205 0.73334 0.53744 1.2557 1.2651 1.591 0.3767 0.17356 0.54922 0.19479 1.5663 0.19276 1.0458-2e-3 1.1895-0.0216 1.6892-0.22988 0.30042-0.12518 0.56218-0.21165 0.58169-0.19214 0.0195 0.0195 2e-3 0.2563-0.0382 0.52622-0.072 0.47926-0.0837 0.49613-0.50254 0.72058-0.23587 0.12641-0.65344 0.28833-0.92796 0.35983-0.59085 0.1539-1.8472 0.15999-2.4567 0.0119zm1.4951-4.7868c0.76012-0.22889 1.173-0.69744 1.1877-1.3477 9e-3 -0.38104-0.0242-0.48648-0.20897-0.67121-0.45129-0.45129-1.771-0.3153-2.5282 0.26052-0.62849 0.47792-1.2013 1.6487-0.90578 1.8514 0.14892 0.10215 2.0458 0.0303 2.4553-0.093z"/>
   <path d="m171.24 203.4v-2.9633l-0.34376 0.34377c-0.80573 0.80572-1.8043 1.2106-3.0006 1.2168-0.65104 3e-3 -0.83164-0.0286-1.2402-0.21935-1.2057-0.56294-1.8516-1.7993-1.8489-3.5392 4e-3 -2.5523 1.3073-4.0988 3.8964-4.6234 0.87572-0.17744 2.6221-0.13292 3.5189 0.0897l0.60096 0.14918 0.0552 1.3998c0.0304 0.76987 0.0552 3.5844 0.0552 6.2546v4.8548h-1.6933zm-2.0083-3.2137c0.54489-0.26123 1.1454-0.81872 1.476-1.3702 0.41835-0.69793 0.54141-1.3161 0.51375-2.5808l-0.0238-1.0866-0.46567-0.11023c-0.26453-0.0626-0.79684-0.0986-1.2324-0.0833-0.62866 0.0221-0.85191 0.0686-1.2396 0.25827-1.3144 0.6431-2.0688 2.4289-1.6436 3.8913 0.34523 1.1876 1.4454 1.6425 2.6154 1.0816z"/>
  </g>
  <path d="m21.977 207.46c-5.129-0.50736-9.4729-4.2876-10.622-9.2437-0.3203-1.3811-0.40787-3.2167-0.21624-4.5325 0.4893-3.3598 2.43-6.4564 5.2122-8.3168 2.1336-1.4267 4.2732-2.0704 6.8541-2.062 1.9847 6e-3 3.51 0.35673 5.2493 1.2054 1.3122 0.64032 2.1059 1.2136 3.2238 2.3289 1.0934 1.0908 1.8061 2.0721 2.3963 3.2994 1.8737 3.8967 1.5077 8.56-0.9539 12.153-0.57631 0.84124-1.8721 2.1828-2.7147 2.8107-2.3971 1.7862-5.4816 2.6489-8.4285 2.3574zm6.8114-6.3396c-0.07457-0.0686-1.0634-0.52665-4.4592-2.0658-0.73194-0.33175-1.3104-0.62362-1.2854-0.64859 0.02497-0.025 2.1478-0.0483 4.7175-0.0519l4.6721-6e-3v-1.7961l-0.35763-0.0285c-0.1967-0.0157-2.3398-0.0283-4.7625-0.0281-2.4227 2.5e-4 -4.4049-9e-3 -4.4049-0.0204s0.42862-0.22579 0.9525-0.47632c0.52388-0.25054 1.5621-0.75315 2.3072-1.1169l1.3547-0.66141 2.3974-9e-3c1.8493-7e-3 2.4127-0.0341 2.4644-0.11776 0.05871-0.095 0.06272-0.43389 0.01789-1.5133l-0.01143-0.27517h-4.9387l-5.7527-2.7968-4.278 0.0452 5.9143 2.7093-9.4022 0.0438v0.92075c0 0.80714 0.01828 0.92506 0.14817 0.95571 0.08149 0.0192 2.2151 0.0319 4.7413 0.0282 2.5262-4e-3 4.5932 7e-3 4.5932 0.0238s-1.0192 0.52994-2.2648 1.1403l-2.2648 1.1098-4.9107 0.018-0.02374 0.92833-0.02374 0.92834h4.9077l2.0572 0.99268c1.1315 0.54598 2.4382 1.1819 2.9039 1.4132l0.84667 0.42054 2.1124 5e-3c1.2087 3e-3 2.078-0.0267 2.032-0.069z" fill="#213464"/>
 </g>
</svg>
