<?xml version="1.0" encoding="UTF-8" standalone="no"?>
<svg
   version="1.1"
   viewBox="0 0 500 220.74909"
   id="svg825"
   sodipodi:docname="ynwa.svg"
   inkscape:version="1.1-dev (0486c1a, 2020-10-10)"
   xmlns:inkscape="http://www.inkscape.org/namespaces/inkscape"
   xmlns:sodipodi="http://sodipodi.sourceforge.net/DTD/sodipodi-0.dtd"
   xmlns="http://www.w3.org/2000/svg"
   xmlns:svg="http://www.w3.org/2000/svg">
  <path
     d="m 0,194.00654 v -26.74967 h 246.25123 l -0.0187,-12.43779 c -0.009,-10.79536 -0.0657,-12.33835 -0.36206,-11.68739 -0.19041,0.41272 -0.87233,2.0966 -1.51598,3.7424 -2.31243,5.91461 -5.81978,10.67249 -9.80578,13.30168 -3.8453,2.53671 -6.19478,3.20259 -10.67529,3.0254 -2.31019,-0.0938 -2.98113,-0.21574 -4.19489,-0.77666 -0.79467,-0.36769 -1.4961,-0.66785 -1.55876,-0.66785 -0.41937,0 -3.06142,-1.87504 -4.68827,-3.32734 -2.29434,-2.04821 -4.10279,-4.65038 -6.03918,-8.69032 -2.51907,-5.25548 -3.49656,-9.29625 -3.80581,-15.73201 -0.10628,-2.21207 -0.015,-3.71089 0.39659,-6.50001 0.66859,-4.53238 1.18214,-6.39017 2.76267,-9.99431 1.52498,-3.47733 2.49599,-5.1145 4.10671,-6.9238 1.61748,-1.81679 5.94341,-5.25941 7.52327,-5.98692 3.85684,-1.77618 10.07498,-1.76802 13.59902,0.0187 2.93338,1.48644 6.53827,4.82944 8.68205,8.05136 1.4705,2.2101 4.13027,8.13202 4.63557,10.32074 0.1604,0.69598 0.38551,1.26459 0.49901,1.26459 0.1135,0 0.2073,-4.41935 0.2073,-9.82078 v -9.82078 l -2.90919,-2.24161 C 237.34,97.943928 231.55032,92.016842 226.67277,85.569082 224.99779,83.354766 223.68273,81.4058 221.2355,77.510505 l -0.86174,-1.371536 -0.15251,1.996616 c -0.32192,4.214682 -3.65565,9.299076 -8.82755,13.463008 -3.10475,2.499659 -4.47065,3.872032 -5.61369,5.64053 -1.27652,1.975035 -1.89118,4.251627 -1.72085,6.373937 l 0.1302,1.62235 -1.08291,0.16228 c -1.42144,0.21292 -2.70433,-0.40991 -3.78349,-1.83866 -0.97251,-1.2872 -1.42631,-2.81369 -1.21996,-4.103998 0.0835,-0.521524 0.1151,-0.947936 0.0704,-0.947936 -0.045,0 -1.08656,0.345181 -2.31543,0.76728 -1.56101,0.535593 -2.96358,0.819804 -4.65395,0.940434 -1.33072,0.0957 -2.49355,0.24763 -2.58407,0.33767 -0.0901,0.0938 0.61795,1.07006 1.57433,2.17671 3.28466,3.80112 5.52411,7.43284 6.69886,10.86384 2.98507,8.7176 3.05316,16.68219 0.21546,25.20855 -1.58465,4.76106 -4.96546,10.06654 -8.64164,13.56244 -3.16423,3.00861 -4.82644,4.1976 -8.34345,5.96788 -6.2913,3.16675 -12.4359,4.41617 -19.98018,4.06273 -6.15361,-0.28796 -9.75512,-1.14229 -21.64512,-5.13298 -9.08108,-3.04773 -9.88081,-3.27256 -14.12523,-3.97259 -4.34816,-0.71756 -7.54381,-0.86858 -11.12459,-0.52527 -4.24123,0.40615 -7.2642,1.21601 -10.69781,2.86697 -1.58324,0.76165 -2.92701,1.3358 -2.986104,1.27671 -0.27145,-0.27109 0.308131,-3.05908 0.846634,-4.07193 1.57761,-2.96715 3.79062,-4.69943 7.77455,-6.08569 1.27192,-0.44274 2.31234,-0.87515 2.31206,-0.96079 -0.001,-0.50183 -7.07237,-4.10522 -11.874987,-6.05193 -3.647007,-1.47846 -8.59567,-3.06715 -13.625282,-4.37414 -4.577219,-1.18947 -10.538348,-1.61785 -14.111162,-1.01416 -4.203245,0.71006 -7.551497,2.09857 -10.360131,4.2961 -1.95956,1.53315 -2.848497,2.69007 -3.928876,5.11291 -0.634553,1.42312 -0.7246,1.92007 -0.7246,3.99997 0,2.13909 0.07691,2.53652 0.774313,4.00007 1.088447,2.28421 2.478646,3.60809 5.057751,4.81669 3.29845,1.54572 6.252846,1.56092 9.514061,0.0469 l 1.346492,-0.62377 -1.39058,-1.45792 c -1.97766,-2.07334 -2.197903,-3.79991 -0.791105,-6.20051 0.891468,-1.52115 2.117147,-2.07034 4.636782,-2.07765 2.45914,-0.007 3.779457,0.63783 4.851862,2.36956 0.69233,1.11808 0.749362,1.38644 0.741949,3.49195 -0.0074,2.08957 -0.08066,2.42603 -0.869236,4.01264 -1.01003,2.03122 -3.214784,4.35998 -5.264481,5.5607 -2.029629,1.18901 -5.828124,2.127 -8.608245,2.12578 -7.427212,-0.003 -13.740653,-4.50039 -15.364319,-10.94356 -1.385696,-5.50029 0.31995,-12.14514 4.099123,-15.96746 3.181671,-3.21853 7.763859,-5.86048 11.318758,-6.52608 6.184092,-1.15786 10.017762,-1.34667 15.196418,-0.74852 4.393182,0.50746 5.337462,0.71757 10.169718,2.26704 7.865727,2.52179 15.114807,5.62618 21.509117,9.21137 1.61034,0.90329 2.96039,1.64177 2.99998,1.64186 0.0394,1e-4 0.0337,-0.55717 -0.0141,-1.23806 -0.0469,-0.68098 0.0506,-1.65208 0.21771,-2.15785 0.43345,-1.31338 1.8668,-2.8045 2.95759,-3.0768 2.38437,-0.59563 2.1706,-0.71569 2.08009,1.17033 -0.10937,2.27801 0.48851,3.60668 2.5262,5.61454 2.69091,2.65143 5.4202,4.29198 10.37514,6.23644 5.04199,1.9785 9.18586,3.45125 9.71104,3.45125 0.245,0 0.0638,-0.45493 -0.57208,-1.43748 -1.68426,-2.60199 -2.34893,-4.00551 -2.71493,-5.73282 -1.25794,-5.93684 0.82534,-12.67885 5.15671,-16.68877 2.61072,-2.41702 7.23624,-4.25079 11.47353,-4.5486 5.24282,-0.36863 10.55523,2.26177 11.99974,5.94133 1.09839,2.79747 0.73811,5.12079 -1.186,7.64812 -1.52358,2.00111 -6.08945,2.98984 -8.16523,1.76821 -1.61409,-0.94991 -2.4203,-2.16386 -2.57572,-3.87851 -0.1937,-2.13609 0.47753,-3.56231 2.17229,-4.61577 1.60763,-0.99943 1.33973,-1.19641 -1.63351,-1.20147 -2.12606,-0.004 -2.38363,0.0563 -4.25005,0.96838 -2.13224,1.04343 -4.31964,2.84371 -5.46736,4.49983 -0.83829,1.20954 -1.64582,3.927 -1.64112,5.52262 0.005,1.78078 0.87327,5.53472 1.64383,7.10839 1.19275,2.43597 4.7847,5.36335 7.8465,6.39486 1.86257,0.62752 6.87427,0.70443 9.04506,0.13882 2.95524,-0.77008 6.09461,-3.16844 7.29581,-5.57448 0.7593,-1.52086 0.9227,-2.42706 0.67751,-3.75657 -0.18657,-1.01153 -0.16865,-1.06059 0.33298,-0.91173 2.29883,0.68286 4.53482,3.04088 5.01986,5.29309 0.0962,0.44649 0.31733,0.8123 0.49132,0.8123 0.49714,0 3.18674,-1.84541 4.05101,-2.77964 1.1027,-1.19173 2.72617,-3.65677 3.31842,-5.03825 0.7216,-1.68341 1.3116,-4.69118 1.45783,-7.43209 0.10834,-2.02981 0.0319,-2.73237 -0.52808,-4.83404 -1.62349,-6.09629 -5.09312,-9.40713 -10.08905,-9.62662 -1.87993,-0.0844 -2.20204,-0.0187 -3.71558,0.68474 -0.91145,0.42678 -1.74833,0.77572 -1.85977,0.77572 -0.49948,0 -0.80451,-1.92148 -0.66813,-4.2083 0.11997,-2.01088 0.26348,-2.60988 0.94897,-3.9604 0.97205,-1.9151 2.51701,-3.40144 4.43399,-4.2658 0.78031,-0.35175 1.4552,-0.66879 1.49976,-0.70444 0.21892,-0.1754 -0.79852,-1.61306 -1.87384,-2.64861 -2.80797,-2.70414 -8.67971,-5.57083 -13.50427,-6.593149 -1.99793,-0.423031 -6.7619,-0.477437 -9.07743,-0.103175 -1.91154,0.309534 -5.59081,1.980664 -7.55694,3.433144 -5.12875,3.78883 -7.26269,9.76544 -5.54813,15.53879 0.21405,0.72038 0.31582,1.38363 0.22633,1.47321 -0.0891,0.0938 -0.80038,0.16134 -1.57948,0.15852 -3.58389,-0.009 -7.99451,-4.0269 -9.7026,-8.83702 -0.25081,-0.7063 -0.53212,-1.28411 -0.62517,-1.28411 -0.38495,0 -1.53615,1.67957 -2.45904,3.58773 -1.55416,3.21319 -2.08225,5.82193 -2.10785,10.41266 -0.0122,2.1313 0.0347,4.60629 0.10336,5.50001 l 0.12504,1.62498 -1.04652,-0.0188 c -0.81681,-0.0187 -1.33815,-0.24106 -2.37501,-1.02607 -3.07332,-2.3265 -4.6243,-4.60395 -5.72419,-8.40554 l -0.56477,-1.95196 -2.01977,1.98179 c -2.30015,2.25681 -4.29657,3.85937 -5.69962,4.57515 l -0.96445,0.49152 -0.50464,-1.14079 c -0.6656,-1.50473 -1.21638,-4.16432 -1.22173,-5.89998 -0.002,-0.76822 -0.0732,-1.46467 -0.15712,-1.54871 -0.0844,-0.0844 -1.01218,0.44648 -2.06246,1.17783 -2.29948,1.60218 -3.358947,2.14978 -5.659657,2.92513 l -1.75001,0.59 -27.312477,0.075 c -15.021951,0.0375 -27.31247,0.11256 -27.31247,0.16227 0,0.0469 0.326798,0.86202 0.726194,1.80413 0.399398,0.9425 1.037045,3.06368 1.416932,4.7137 0.612416,2.65968 0.692521,3.51044 0.706403,7.50001 0.01407,4.0842 -0.04784,4.75844 -0.66757,7.29711 -0.88387,3.61877 -1.854505,6.22311 -3.603674,9.66789 -2.971468,5.85289 -7.536022,8.89461 -13.36452,8.90596 -2.457729,0.005 -4.632559,-0.67817 -6.579645,-2.06687 -2.45679,-1.7518 -3.384183,-3.64541 -3.384183,-6.90972 0,-3.6806 2.475175,-7.25678 5.731323,-8.28079 1.68698,-0.53091 3.841549,-0.46712 4.650943,0.13601 0.368819,0.27483 0.631739,0.61251 0.584464,0.75039 -0.0469,0.13789 -0.693271,0.49714 -1.435599,0.79824 -0.742234,0.30203 -1.671315,0.85638 -2.064615,1.23355 -0.817273,0.78322 -1.719154,2.97822 -1.710993,4.16478 0.01219,1.75207 1.815673,4.18552 3.396284,4.58219 1.842781,0.46243 5.571958,-0.65753 7.202846,-2.16367 1.294055,-1.19491 3.630783,-5.61876 4.484637,-8.49033 0.952157,-3.20194 1.178213,-4.74605 1.336265,-9.12667 0.115467,-3.20119 0.06003,-4.41776 -0.277177,-6.08205 -0.527808,-2.60489 -1.897278,-6.41924 -3.035345,-8.45431 -1.077847,-1.92739 -3.287289,-4.54326 -4.613705,-5.4624 -0.549663,-0.38082 -0.999431,-0.78979 -0.999431,-0.90892 0,-0.11912 6.833371,-0.21573 15.211429,-0.21573 17.114615,0 15.437484,0.2026 16.548068,-1.99999 0.913417,-1.81155 1.234867,-3.44863 1.238056,-6.30537 0.0075,-6.77597 -2.438593,-10.780357 -6.796132,-11.1246 l -1.575828,-0.12475 -1.072689,1.087036 c -1.267603,1.28458 -1.472554,1.913594 -1.065935,3.270964 0.616731,2.05834 2.107858,2.83912 3.768856,1.97335 0.555573,-0.28983 1.119118,-0.52621 1.252407,-0.52621 0.701056,0 -0.266484,2.20194 -1.469646,3.34479 -0.642807,0.61063 -1.016035,0.7382 -2.460355,0.84044 -2.308401,0.16322 -3.531919,-0.21761 -5.034771,-1.56917 -1.426499,-1.28252 -1.794661,-2.37565 -1.790346,-5.31579 0.0031,-2.127555 0.759586,-3.836109 2.444597,-5.521119 1.488219,-1.488123 3.3219,-2.148566 5.927926,-2.13506 2.071838,0.0094 4.964702,1.040986 6.632547,2.36196 l 1.035919,0.820742 -0.209266,-2.350703 c -0.283931,-3.189271 -0.217802,-7.528984 0.14248,-9.350756 0.665413,-3.365046 2.445912,-6.875016 3.487554,-6.875016 0.154112,0 0.734912,0.904223 1.290673,2.009647 1.859767,3.698976 2.422372,8.511258 1.618504,13.844776 -0.205512,1.363467 -0.343399,2.509315 -0.306443,2.546271 0.03656,0.0375 0.683899,-0.317037 1.437667,-0.786036 1.958435,-1.219199 3.578439,-1.705173 5.745392,-1.723467 2.202029,-0.01875 4.006639,0.688487 5.731324,2.24696 1.839592,1.661935 3.033471,4.5669 2.635953,6.413621 -0.392087,1.8213 -1.546567,3.89464 -2.530147,4.54391 -2.900277,1.91455 -6.261379,1.88031 -7.911408,-0.0844 -0.547412,-0.65097 -0.674324,-1.04887 -0.667849,-2.09651 0.0071,-1.15955 0.04406,-1.24575 0.356249,-0.83387 0.191538,0.25232 0.747493,0.54966 1.235342,0.6594 2.37471,0.5356 4.592694,-2.71792 3.238884,-4.751115 -0.703118,-1.055992 -1.121086,-1.243123 -2.776647,-1.243123 -4.633025,0 -7.561721,4.007848 -7.561721,10.347938 0,2.98263 0.657155,5.98439 1.632767,7.45873 l 0.62433,0.94334 h 21.510984 l -1.67291,-1.56251 c -1.697866,-1.58577 -2.579953,-3.02493 -2.589897,-4.22547 l -0.0056,-0.66316 1.187499,0.37426 c 3.46307,1.09116 3.800276,1.13422 6.427973,0.82168 2.955802,-0.35175 4.981306,-1.08882 7.75954,-2.82336 2.80245,-1.74973 3.80122,-2.54074 7.50001,-5.94059 3.36214,-3.09031 8.1581,-6.693799 11.31313,-8.499616 2.15251,-1.232148 5.20689,-2.56804 8.81226,-3.853932 1.44375,-0.514962 2.67496,-0.982361 2.73612,-1.038643 0.061,-0.05625 -0.30775,-0.447418 -0.8198,-0.869517 -1.43691,-1.184492 -2.02513,-2.518891 -2.03395,-4.614269 -0.006,-1.356617 0.13264,-2.06931 0.59187,-3.049884 0.32961,-0.703493 0.74393,-1.335042 0.92065,-1.40286 0.18628,-0.07504 0.63811,0.369568 1.07493,1.049892 1.00769,1.568698 2.44751,2.937234 3.59148,3.413827 2.69477,1.122592 3.49534,1.206542 13.18819,1.382885 9.23922,0.1679 9.43057,0.181969 13.22475,0.965755 2.11715,0.4371 3.87701,0.765399 3.91087,0.727881 0.0337,-0.0375 -0.14501,-0.854512 -0.39743,-1.817267 -0.65622,-2.50209 -0.6172,-4.656756 0.12353,-6.834678 0.89279,-2.624978 1.8229,-4.179982 3.31647,-5.545043 1.79382,-1.639517 3.55977,-2.293766 6.57223,-2.435122 2.12127,-0.09943 2.52338,-0.04687 3.76342,0.5037 1.7319,0.76728 3.05541,1.913978 3.93366,3.40792 0.57593,0.97973 0.67798,1.437842 0.67798,3.045571 0,2.079616 -0.41535,2.977184 -1.95788,4.230338 -1.09032,0.885474 -3.88395,1.034424 -5.35321,0.28515 -2.18768,-1.116024 -3.18046,-3.298727 -2.61813,-5.755992 0.14483,-0.633143 0.22221,-1.191999 0.17194,-1.24218 -0.0506,-0.04687 -0.4629,0.138825 -0.91708,0.420218 -2.35858,1.462704 -3.34451,3.669058 -3.14903,7.046772 0.0938,1.620754 0.25091,2.169104 1.01031,3.527127 2.58492,4.622244 7.96506,7.25894 14.93847,7.320659 2.65246,0.02813 3.05974,-0.0375 5.26214,-0.810424 1.31291,-0.459618 2.64712,-1.032074 2.96481,-1.271736 l 0.57771,-0.436162 -0.86745,-0.512143 c -1.89316,-1.117055 -2.78416,-3.352764 -2.20026,-5.521118 0.30785,-1.143223 1.46628,-2.617752 1.67086,-2.126616 0.0685,0.163213 0.51673,0.812299 0.99717,1.441036 1.7472,2.288228 6.1628,3.703195 9.72042,3.11479 3.86059,-0.638774 6.86892,-2.832265 8.41989,-6.139724 0.85836,-1.830491 1.2058,-3.504151 0.80977,-3.900176 -0.0797,-0.08442 -0.61429,0.06566 -1.1875,0.327362 -3.65225,1.658279 -7.93241,-1.24406 -7.32788,-4.969012 0.37295,-2.298278 1.94352,-3.776082 4.74015,-4.460157 1.4537,-0.355499 1.94605,-0.372387 3.34713,-0.114437 1.94352,0.358312 3.18027,0.949343 4.17425,1.995673 0.39921,0.420218 0.81203,0.710999 0.91755,0.645336 0.10543,-0.06566 0.48344,0.248569 0.83988,0.695993 0.55876,0.702555 0.49338,0.442731 -0.47425,-1.882273 -1.50858,-3.624964 -3.95673,-11.244655 -4.73105,-14.724608 -1.23703,-5.560046 -1.98545,-17.585487 -1.42068,-22.827929 0.46758,-4.339905 0.3237,-4.174912 2.11321,-2.423023 1.45782,1.427157 3.9813,3.194428 6.0659,4.248169 1.61419,0.816054 6.35884,2.513914 8.21382,2.939482 1.96274,0.450236 7.92809,0.527152 10.02808,0.128505 2.98712,-0.566548 5.84969,-2.183741 7.89564,-4.460906 1.1888,-1.323132 1.61607,-2.169859 2.07297,-4.107658 0.5037,-2.13806 0.47274,-3.033093 -0.15009,-4.272369 -0.70631,-1.405019 -1.1571,-1.884334 -2.33907,-2.48765 -1.32969,-0.679108 -2.5109,-0.668789 -3.95374,0.02814 -1.66005,0.806673 -2.53952,2.492528 -2.35275,4.510057 0.075,0.766339 0.2101,1.651804 0.30953,1.968377 0.16696,0.531842 0.12568,0.561858 -0.53936,0.401461 -1.53596,-0.371445 -2.89455,-1.190688 -3.44157,-2.076622 -1.36703,-2.213475 -1.52763,-4.858708 -0.43524,-7.167859 0.99333,-2.099603 1.97532,-3.127174 3.94324,-4.126324 1.5307,-0.776659 1.88423,-0.856388 3.82879,-0.856388 1.78472,0 2.44459,0.121939 3.95241,0.727882 0.99559,0.400524 1.85582,0.681922 1.91163,0.624704 0.0563,-0.05628 -0.009,-0.721317 -0.15382,-1.477807 -0.41835,-2.249213 -0.10319,-6.3005916 0.6791,-8.7499722 C 249.36597,2.6976671 250.62898,0 250.97078,0 c 0.50464,0 1.59393,1.1424752 2.16658,2.272475 0.9879,1.9495242 1.42697,4.2745264 1.45933,7.727559 0.0188,1.718779 -0.0657,3.659391 -0.18666,4.312516 -0.25608,1.411304 -0.14351,1.450794 1.69176,0.589059 1.90994,-0.896721 3.82879,-1.225769 5.26758,-0.903287 3.57375,0.801046 6.38154,4.247889 6.38154,7.834397 0,2.449099 -2.23008,5.146391 -4.60076,5.56483 -0.94249,0.166024 -0.96951,0.151954 -0.78979,-0.424911 0.48025,-1.540278 0.45024,-3.375461 -0.075,-4.398154 -0.8836,-1.731347 -2.63493,-2.818762 -4.54749,-2.822983 -1.75077,-0.0039 -4.13617,2.133277 -4.7802,4.282593 -0.61813,2.062177 0.81324,5.903164 2.99811,8.044601 1.2283,1.204101 3.68255,2.542523 6.24506,3.405758 2.59861,0.875148 9.75418,0.682859 13.92168,-0.374259 3.56363,-0.904225 9.72136,-4.261395 12.15358,-6.62645 1.41787,-1.378662 1.4325,-1.385603 1.58914,-0.749456 0.33393,1.35343 0.44555,13.021216 0.15571,16.196321 -0.83294,9.120854 -2.65058,16.361407 -6.06487,24.160821 -0.95281,2.176609 -0.67066,2.703477 0.72976,1.36196 1.22905,-1.177554 2.1359,-1.611935 4.13232,-1.979816 2.98854,-0.550605 6.40809,0.735387 7.48181,2.814722 2.24509,4.346756 -2.18777,8.785432 -6.71913,6.728034 -0.57311,-0.260762 -1.10757,-0.408024 -1.18749,-0.328299 -0.52434,0.524343 0.26639,3.326127 1.50538,5.332962 1.30597,2.115641 4.63321,4.191232 7.57335,4.724387 3.43259,0.622831 8.01956,-0.802924 9.78984,-3.042565 0.51683,-0.65378 0.99905,-1.332885 1.07109,-1.508479 0.21199,-0.515899 1.36065,0.924862 1.67825,2.104479 0.58343,2.168353 -0.30672,4.404063 -2.20034,5.521024 l -0.86764,0.512143 0.5778,0.436168 c 0.31798,0.239187 1.6519,0.812299 2.96481,1.271636 2.23374,0.782293 2.57986,0.83388 5.38717,0.800111 2.36056,-0.02812 3.52151,-0.175406 5.44702,-0.689424 3.67459,-0.980861 5.47141,-1.99136 7.71358,-4.338313 2.48231,-2.598146 3.05805,-3.995751 2.909,-7.061491 -0.13601,-2.791277 -0.72788,-4.119663 -2.4415,-5.47403 -1.53043,-1.209636 -1.83227,-1.27473 -1.57038,-0.338618 0.10599,0.378012 0.18759,1.386448 0.18103,2.240772 -0.009,1.348836 -0.11162,1.677791 -0.77385,2.500034 -1.30691,1.622723 -2.40679,2.102035 -4.6303,2.01771 -1.70631,-0.06566 -2.02007,-0.156644 -2.87495,-0.839499 -1.46515,-1.170899 -1.88631,-2.16376 -1.76015,-4.150151 0.17353,-2.736309 1.5673,-4.587725 4.55377,-6.050054 2.74447,-1.343767 7.14929,-0.699737 10.10781,1.478091 1.81173,1.333736 2.71211,2.661647 3.75038,5.530974 0.9061,2.503403 0.98282,4.514651 0.27577,7.209785 -0.25232,0.962473 -0.43148,1.78021 -0.39771,1.81726 0.0375,0.0375 1.79363,-0.290775 3.91086,-0.728818 3.79906,-0.786036 3.97165,-0.79823 13.22383,-0.962942 9.63506,-0.170713 10.49238,-0.258888 13.08218,-1.340955 1.19135,-0.498068 2.62366,-1.83181 3.59336,-3.346664 1.10608,-1.728061 1.35437,-1.708173 2.3463,0.187599 0.86858,1.660905 0.83012,4.15972 -0.0938,5.930455 -0.37427,0.717568 -1.01745,1.554823 -1.4296,1.859579 -0.41178,0.304843 -0.74946,0.622824 -0.74946,0.70818 0,0.08442 0.79918,0.410844 1.77497,0.725068 2.69616,0.86858 7.26635,2.85844 9.84517,4.286726 2.99726,1.660429 7.88842,5.311662 10.89197,8.130799 3.57094,3.35154 4.88047,4.40828 7.48828,6.04293 3.21216,2.0133 5.1794,2.75769 8.16869,3.09115 2.40136,0.26826 2.50951,0.257 4.83132,-0.47275 2.6534,-0.83481 2.72187,-0.80386 2.2388,0.99005 -0.22136,0.82075 -0.73257,1.51383 -2.13477,2.89381 l -1.844,1.81435 h 21.45565 l 0.49713,-0.69787 c 1.03808,-1.45791 1.60969,-3.76416 1.73172,-6.98785 0.10506,-2.78903 0.0563,-3.24724 -0.54122,-5.16731 -1.22277,-3.921842 -3.58341,-5.897252 -7.04714,-5.897252 -1.44563,0 -1.70011,0.07504 -2.24922,0.667849 -1.5323,1.653303 -0.96359,4.112543 1.19257,5.156803 0.90329,0.4371 2.31844,0.19323 2.83621,-0.49057 0.31235,-0.41178 0.34893,-0.32548 0.35644,0.83387 0.009,2.24171 -1.61513,3.58164 -4.35398,3.58164 -2.75882,0 -4.84614,-1.3087 -5.98083,-3.75001 -1.86238,-4.006916 -0.19041,-8.222441 4.04903,-10.210045 2.59515,-1.216573 6.01142,-0.810424 9.03916,1.07428 0.75414,0.468999 1.40071,0.822618 1.43766,0.786036 0.0375,-0.0375 -0.1013,-1.182711 -0.30672,-2.546177 -0.80855,-5.364381 -0.25326,-10.120937 1.61456,-13.836332 0.55812,-1.109643 1.10065,-2.017529 1.20598,-2.017529 1.05656,0 2.71052,3.060952 3.43746,6.361842 0.48776,2.215916 0.5975,5.967323 0.28515,9.735431 l -0.20542,2.472546 1.0318,-0.816992 c 1.27661,-1.011061 4.41325,-2.25371 6.13804,-2.431741 0.93611,-0.09662 1.8348,0.02813 3.26599,0.451168 1.65265,0.489637 2.17052,0.780412 3.17736,1.784717 0.66128,0.660349 1.49187,1.831147 1.84502,2.602465 0.58063,1.267511 0.63034,1.621604 0.52247,3.685281 -0.13882,2.64795 -0.48119,3.46926 -1.98817,4.75881 -1.30212,1.11452 -2.56991,1.47481 -4.756,1.35127 -1.45754,-0.0844 -1.78987,-0.1951 -2.46588,-0.83763 -1.23207,-1.17061 -2.20054,-3.36729 -1.48457,-3.36729 0.13789,0 0.67067,0.22511 1.18385,0.49994 1.12446,0.60314 1.36984,0.61345 2.34957,0.10694 0.97551,-0.50464 1.82393,-2.32698 1.61119,-3.461106 -0.0844,-0.468055 -0.58343,-1.239367 -1.18703,-1.849341 -0.94803,-0.957605 -1.14491,-1.046617 -2.3099,-1.044367 -3.25924,0.0063 -5.90813,2.633227 -6.76565,6.709844 -0.55247,2.62619 -0.50839,7.09375 0.0844,8.82314 0.58813,1.70911 1.38307,3.28071 1.85976,3.67645 0.27765,0.23075 3.99304,0.30016 15.51815,0.29172 8.55112,-0.006 15.15234,0.0844 15.15234,0.20823 0,0.121 -0.45306,0.53373 -1.00628,0.91736 -1.40624,0.97448 -3.80197,3.87354 -4.8513,5.87043 -1.08525,2.06527 -2.51129,6.28211 -2.91181,8.6103 -0.3433,1.9953 -0.18385,8.64454 0.26451,11.01485 0.85639,4.52863 3.41767,10.28978 5.37902,12.09729 1.65256,1.5233 5.37188,2.64646 7.22404,2.18159 1.58071,-0.39677 3.38437,-2.83021 3.39629,-4.58228 0.007,-1.01933 -0.86953,-3.27294 -1.56195,-4.0147 -0.47275,-0.50652 -2.32341,-1.51177 -3.49084,-1.8957 -0.67535,-0.2223 -0.26545,-0.8273 0.86578,-1.28016 1.81191,-0.72507 5.18015,0.0563 6.77361,1.57236 0.97945,0.93142 2.28289,3.18814 2.66737,4.6182 0.20355,0.75603 0.27202,1.92448 0.18667,3.17332 -0.23451,3.42771 -1.50774,5.14592 -5.14462,6.94528 -1.59242,0.78791 -2.12652,0.92205 -4.04218,1.01331 -5.60685,0.26827 -10.39671,-2.44507 -13.47427,-7.63254 -2.10719,-3.55143 -4.02774,-9.19036 -4.7952,-14.07927 -0.7382,-4.70122 0.5037,-13.5812 2.41626,-17.2797 0.19511,-0.37802 0.35551,-0.7457 0.35551,-0.81605 0,-0.0751 -12.29052,-0.16134 -27.31248,-0.20073 l -27.31247,-0.0751 -1.74992,-0.58999 c -2.3007,-0.77572 -3.36026,-1.32304 -5.65976,-2.92513 -1.05026,-0.73164 -1.97841,-1.26188 -2.06245,-1.17784 -0.0844,0.0844 -0.15477,0.78135 -0.15758,1.54862 -0.006,1.73576 -0.55623,4.39535 -1.22174,5.90007 l -0.50464,1.14079 -0.96444,-0.49151 c -1.40305,-0.71569 -3.39938,-2.31834 -5.69963,-4.57525 l -2.01967,-1.9817 -0.56468,1.95197 c -1.15561,3.99369 -3.05223,6.62683 -6.37985,8.85662 -0.97205,0.65097 -1.70527,0.96885 -2.12502,0.92017 -0.6294,-0.075 -0.63877,-0.10412 -0.5159,-1.69964 0.0657,-0.89391 0.11913,-3.31253 0.11256,-5.37498 -0.0188,-4.79746 -0.48869,-7.12218 -2.13825,-10.51865 -1.06537,-2.19303 -2.29245,-3.91387 -2.55762,-3.5867 -0.0469,0.0563 -0.39208,0.94887 -0.76728,1.9801 -0.88547,2.43541 -1.89306,3.98141 -3.56522,5.47178 -1.95403,1.74158 -3.87156,2.64458 -5.62608,2.64936 -0.77947,0.002 -1.49263,-0.075 -1.58559,-0.16508 -0.0938,-0.0938 0.008,-0.77666 0.22325,-1.51833 1.26301,-4.34469 0.48307,-8.58592 -2.26901,-12.34305 -1.43991,-1.96565 -3.74728,-3.71463 -6.93166,-5.25417 -2.86173,-1.383533 -4.69635,-1.68932 -9.14534,-1.524139 -4.09735,0.151956 -6.5153,0.786969 -10.70062,2.811169 -3.29405,1.59309 -4.71773,2.50669 -6.38192,4.09546 -1.0619,1.01379 -2.10401,2.47499 -1.87383,2.62751 0.0469,0.0281 0.83387,0.41647 1.75527,0.86107 1.90375,0.91829 3.34451,2.38607 4.34178,4.42452 0.50182,1.02588 0.67723,1.84681 0.78697,3.67327 0.13601,2.28007 -0.17165,4.19114 -0.67442,4.19114 -0.11443,0 -0.9211,-0.33768 -1.79306,-0.74946 -3.43165,-1.62338 -7.77699,-0.65847 -10.31979,2.29246 -2.61851,3.03834 -4.04604,7.29673 -3.82607,11.41349 0.1482,2.78125 0.73538,5.78441 1.46026,7.47618 0.59187,1.38148 2.21573,3.84652 3.31843,5.03824 0.86389,0.93424 3.55387,2.77965 4.05101,2.77965 0.17446,0 0.39489,-0.36582 0.4915,-0.8123 0.49808,-2.31319 2.62047,-4.54608 5.02765,-5.28944 0.51214,-0.15852 0.52714,-0.11819 0.31141,0.84232 -0.6369,2.83536 1.42987,6.2929 4.99706,8.35892 2.24142,1.29828 3.83489,1.65068 7.46398,1.65068 4.5033,0 6.4457,-0.76071 10.02714,-3.92457 1.23122,-1.08759 1.8003,-1.83067 2.43897,-3.18457 0.81793,-1.73416 1.59806,-5.20755 1.59806,-7.11656 0,-1.40511 -0.85545,-4.16422 -1.64439,-5.30237 -1.14773,-1.65612 -3.33513,-3.45641 -5.46737,-4.49984 -1.86643,-0.9136 -2.12391,-0.97194 -4.25005,-0.96828 -2.47527,0.004 -3.44909,0.29546 -2.36561,0.70724 1.10157,0.41929 2.17764,1.51702 2.61906,2.67281 1.23899,3.24424 -1.12663,6.6016 -4.65883,6.6121 -3.13346,0.009 -5.37554,-1.24603 -6.73357,-3.76989 -0.78322,-1.45613 -0.86013,-1.78209 -0.84513,-3.60104 0.0281,-3.41758 1.32933,-5.26589 4.94595,-7.02069 2.46607,-1.1965 5.0025,-1.70893 7.50225,-1.51561 10.25883,0.79354 17.48043,8.82802 16.83322,18.72797 -0.17728,2.71229 -0.98696,5.06018 -2.59899,7.53592 -0.72413,1.11227 -1.20917,2.05984 -1.07738,2.10551 0.50464,0.17541 11.13585,-3.7635 13.80257,-5.11355 2.05973,-1.04287 4.78713,-2.96857 6.30968,-4.455 1.90675,-1.86154 2.69842,-3.62404 2.58745,-5.76021 -0.0938,-1.80602 -0.30016,-1.6944 2.05018,-1.10909 1.83236,0.45586 3.116,2.62685 2.95204,4.99181 -0.0469,0.68099 -0.0563,1.23815 -0.009,1.23815 0.0375,-9e-5 1.38955,-0.73914 2.99998,-1.64196 6.25519,-3.50724 13.23977,-6.51342 21.08608,-9.07564 4.99678,-1.63164 6.27367,-1.91698 10.84225,-2.42265 4.39497,-0.48681 7.97079,-0.37707 12.62539,0.38739 4.82982,0.79354 6.51877,1.45596 10.11344,3.96818 4.23898,2.96265 6.38313,5.93525 7.52335,10.43048 1.93274,7.61894 -0.90516,14.30345 -7.45526,17.5611 -4.05907,2.01875 -8.06138,2.4053 -12.53909,1.21105 -2.98787,-0.79729 -4.76312,-1.79204 -6.76554,-3.79287 -2.4703,-2.46824 -3.61822,-5.40124 -3.27088,-8.35668 0.36769,-3.12792 2.33588,-4.77297 5.69887,-4.76284 2.43268,0.007 3.67796,0.57311 4.55555,2.0709 0.80386,1.37209 1.06659,3.25671 0.63596,4.56278 -0.17352,0.52715 -0.81512,1.49131 -1.42472,2.14321 l -1.10861,1.18515 0.80948,0.41835 c 3.52995,1.82534 6.93074,1.78078 10.73721,-0.1407 2.53024,-1.27736 3.92728,-3.01255 4.8845,-6.06694 0.63971,-2.03976 0.27765,-4.43126 -1.10758,-7.31737 -1.58268,-3.29836 -4.28682,-5.62401 -8.43077,-7.25087 -4.16,-1.63314 -6.96141,-2.0043 -12.36369,-1.6383 -4.14489,0.28046 -7.69829,1.06631 -14.49105,3.20325 -5.75073,1.80901 -12.77452,4.91152 -16.62498,7.34354 l -1.67957,1.06077 2.58999,0.91736 c 1.42443,0.50465 3.16085,1.27155 3.85862,1.70471 1.42134,0.88265 3.0419,2.68088 3.94332,4.3764 0.53841,1.01284 1.11818,3.80036 0.84701,4.07191 -0.0562,0.0563 -1.40287,-0.51495 -2.98611,-1.2767 -7.1337,-3.43033 -15.38214,-3.94023 -25.69724,-1.58858 -1.16874,0.26639 -5.94997,1.76567 -10.62465,3.33166 -13.21913,4.42807 -15.89709,4.98618 -23.75935,4.95194 -5.97774,-0.0281 -7.08747,-0.19041 -12.37025,-1.83143 -2.76436,-0.8592 -7.09132,-2.99623 -9.4953,-4.69062 -0.89391,-0.6294 -2.83452,-2.37143 -4.31289,-3.87016 -5.54832,-5.62486 -8.56922,-11.69114 -10.07029,-20.22312 -0.87046,-4.94473 -0.13319,-11.90313 1.88574,-17.80592 1.50154,-4.38981 3.27416,-7.14845 8.08615,-12.58411 0.27296,-0.3086 0.4221,-0.63596 0.33112,-0.72695 -0.0938,-0.0938 -1.26348,-0.25419 -2.60519,-0.362058 -1.64373,-0.132256 -3.16825,-0.44555 -4.67383,-0.960318 -1.22895,-0.420218 -2.24142,-0.763524 -2.25005,-0.763524 -0.008,0 -0.0188,0.816049 -0.0281,1.81248 -0.009,2.1375 -0.45117,3.05767 -1.97729,4.14743 -1.30165,0.92955 -1.93818,1.11752 -3.10935,0.92017 l -0.95094,-0.16039 0.11257,-1.79701 c 0.13319,-2.12793 -0.46525,-4.203524 -1.826,-6.331178 -0.93143,-1.456511 -3.78471,-4.295251 -6.364,-6.332292 -2.95533,-2.334003 -5.93111,-6.142254 -7.23445,-9.258644 -0.35738,-0.853574 -0.62377,-2.109547 -0.70256,-3.312427 -0.0657,-1.065655 -0.19699,-1.931703 -0.28234,-1.924478 -0.0844,0.0071 -1.35756,1.835278 -2.82692,4.062444 -3.27932,4.9708 -6.18475,8.627658 -9.9521,12.525959 -2.9,3.001008 -8.09873,7.611056 -11.44164,10.145326 l -1.81005,1.37238 v 10.08623 c 0,7.72043 0.0657,10.06279 0.29922,9.98587 0.16415,-0.0563 0.81793,-1.61109 1.45211,-3.45837 2.03001,-5.91433 3.76689,-8.77484 7.43528,-12.24456 2.38354,-2.25475 4.09613,-3.40164 6.61857,-4.4323 2.27136,-0.92767 6.26843,-1.07616 9.17854,-0.34049 4.36261,1.10317 8.38978,4.0738 11.23059,8.28388 1.97457,2.92673 2.88246,4.81885 4.0435,8.42758 1.70396,5.296 2.24621,10.05529 1.76015,15.44781 -1.05225,11.67332 -5.31655,20.24 -12.3665,24.8418 -2.32875,1.5203 -4.36796,2.23974 -7.21185,2.5444 -8.73806,0.93611 -17.89691,-6.94556 -21.32339,-18.34996 -0.39865,-1.32631 -0.8123,-2.41148 -0.92017,-2.41148 -0.10788,0 -0.19605,5.56877 -0.19605,12.37494 V 167.2488 H 500 v 53.50029 H 0.0029453 Z m 431.39225,15.22831 c 4.32329,-0.79166 7.83298,-4.56606 9.27927,-9.97837 0.53372,-1.99698 0.59,-7.17151 0.10131,-9.37505 -0.40616,-1.83377 -1.91435,-4.89885 -3.12164,-6.34392 -1.16761,-1.39751 -3.01406,-2.91622 -4.31252,-3.54693 -2.41608,-1.1738 -6.02594,-1.11424 -8.78739,0.14539 -2.732,1.24584 -5.39515,4.77833 -6.41794,8.51332 -0.61814,2.25737 -0.76822,7.0779 -0.29171,9.3576 0.54872,2.62329 2.4293,6.29412 4.03412,7.87501 1.51326,1.49076 3.97718,2.86763 5.87398,3.28241 1.782,0.39021 1.88959,0.39208 3.64158,0.0751 z m -2.51655,-3.46269 c -1.24068,-0.3011 -2.2357,-0.9258 -3.23392,-2.03066 -1.97822,-2.18966 -2.90505,-5.54467 -3.08158,-11.15461 -0.1529,-4.85083 0.27858,-6.57618 2.15288,-8.61452 1.18684,-1.29078 1.23403,-1.31423 2.85328,-1.41732 3.91753,-0.24949 6.01131,1.98161 7.57916,8.07603 0.57968,2.25381 0.63222,2.84474 0.53466,5.99996 -0.0844,2.85826 -0.21199,3.76961 -0.67442,4.97023 -1.1784,3.06227 -3.68077,4.76464 -6.13034,4.17042 z m 21.91902,3.1131 c 0.24763,-0.54403 0.20355,-0.68379 -0.35082,-1.12033 -1.31103,-1.03123 -1.47911,-2.00956 -1.73096,-10.07404 -0.13038,-4.1571 -0.13789,-7.61032 -0.0188,-7.82474 0.16509,-0.29547 0.5506,0.12193 1.6745,1.81595 0.80293,1.20992 3.48952,5.12482 5.97061,8.69979 2.53239,3.64907 4.72383,7.07575 4.99632,7.81254 l 0.48493,1.31253 h 3.08093 c 3.85056,0 4.00579,-0.1407 2.78106,-2.51391 l -0.80761,-1.56514 -0.0844,-7.14797 c -0.1013,-8.85859 0.19885,-13.78756 0.92486,-15.21049 0.28234,-0.55435 0.82262,-1.23271 1.20091,-1.50792 0.59094,-0.43054 0.64065,-0.55623 0.35269,-0.90235 -0.48307,-0.58155 -8.04648,-0.60031 -8.52739,-0.0187 -0.17353,0.20917 -0.27202,0.41271 -0.21762,0.45023 0.0563,0.0375 0.39491,0.25514 0.75697,0.4812 0.36206,0.22606 0.89203,0.89485 1.17615,1.48681 0.50182,1.0439 0.51214,1.31028 0.34143,9.05979 l -0.17635,7.98438 -3.87129,-5.48434 c -7.2412,-10.25883 -8.25358,-11.9641 -8.25358,-13.90387 v -0.70538 h -3.46869 c -5.0647,0 -5.75656,0.23169 -4.42649,1.481 1.87448,1.76109 2.33766,5.50256 1.98292,16.01905 -0.26827,7.94413 -0.38458,8.61311 -1.74907,10.03745 -0.34894,0.36488 -0.59469,0.87046 -0.54591,1.12503 0.0844,0.41741 0.44929,0.47557 3.83554,0.5975 2.06095,0.075 3.89013,0.15852 4.06498,0.1876 0.17446,0.0281 0.44554,-0.22699 0.60125,-0.56936 z m 36.38286,0.24575 c 0.16603,-0.0563 0.48401,-0.7532 0.70537,-1.5504 0.22231,-0.79729 0.64628,-2.14904 0.94305,-3.0043 0.73539,-2.12052 0.45118,-2.35117 -1.47076,-1.192 -0.81418,0.49151 -2.21864,1.1178 -3.12127,1.39273 -1.70152,0.51777 -5.12107,0.99324 -5.67664,0.78885 -0.24481,-0.0938 -0.30203,-1.20963 -0.25044,-4.90073 l 0.0657,-4.78376 1.19322,0.075 c 1.58689,0.10036 3.14884,0.67442 3.96527,1.45642 0.55904,0.53559 0.74945,0.59281 1.19106,0.35644 0.49245,-0.26358 0.52528,-0.48494 0.52528,-3.49112 0,-4.66098 -0.33675,-5.6968 -1.34987,-4.15071 -0.48119,0.73539 -2.03385,1.5732 -3.77514,2.03835 -0.68755,0.18385 -1.319,0.33487 -1.40352,0.33675 -0.33017,0.006 -0.47368,-2.51992 -0.31423,-5.54673 l 0.16697,-3.17464 1.65077,0.13788 c 2.3267,0.19417 4.68949,0.75603 5.79295,1.37604 1.59797,0.89766 1.82778,0.59844 1.61616,-2.10617 -0.0994,-1.26929 -0.23262,-2.39235 -0.2964,-2.49562 -0.0657,-0.10319 -3.47077,-0.1876 -7.57082,-0.1876 -8.4909,0 -8.51294,0.005 -7.41849,1.66935 1.06171,1.61465 1.18815,2.8787 1.16836,11.68176 -0.0188,10.22224 -0.31048,12.32147 -1.87176,13.67874 -0.66504,0.57781 -0.82074,1.19313 -0.40615,1.60725 0.22605,0.22606 15.26208,0.21386 15.93931,-0.009 z m -234.98594,-0.46336 c 0.25138,-0.55248 0.18666,-0.62189 -1.07569,-1.1451 -1.51796,-0.6294 -3.39591,-2.6398 -5.73668,-6.14179 -1.48286,-2.21855 -3.61473,-6.07942 -3.62121,-6.55826 -0.002,-0.16978 0.56186,-0.59562 1.25438,-0.94606 2.29442,-1.16264 3.99716,-3.31965 4.33831,-5.4957 0.20448,-1.30268 -0.35644,-3.61268 -1.17943,-4.85571 -1.93264,-2.92044 -5.33202,-3.81172 -12.97526,-3.40238 -2.98807,0.1604 -3.44234,0.24106 -3.56747,0.63502 -0.0938,0.28421 0.0938,0.70631 0.49245,1.13826 1.24603,1.34442 1.38335,2.47508 1.37744,11.3422 -0.005,7.17425 -0.0657,8.40957 -0.49994,10.39203 -0.33769,1.53577 -0.73633,2.59458 -1.25588,3.33578 -1.17306,1.6731 -0.93612,1.78922 3.64654,1.78922 2.10316,0 4.00185,-0.0657 4.21937,-0.15195 0.51308,-0.19698 0.50464,-0.69693 -0.0187,-1.13019 -0.22793,-0.18853 -0.61907,-0.79354 -0.86952,-1.34311 -0.49339,-1.08563 -0.57218,-3.69203 -0.2392,-7.99995 l 0.17354,-2.25006 0.89203,1.87505 c 1.12165,2.3582 3.58538,6.0523 5.25511,7.87913 2.42808,2.65668 4.32592,3.57179 7.47504,3.60396 1.49517,0.0187 1.67217,-0.0375 1.91539,-0.57124 z M 236.5037,187.99242 v -4.80694 l 1.34688,0.13882 c 2.03825,0.21012 3.59663,1.11303 4.31298,2.49825 0.44836,0.86671 0.49995,2.69448 0.10224,3.6533 -0.54497,1.31609 -2.81051,2.83292 -4.69972,3.14678 l -1.06247,0.17634 z m 179.51306,18.3884 c 1.27464,-3.85365 1.32942,-4.125 0.83388,-4.125 -0.22512,0 -0.7926,0.33673 -1.2617,0.74851 -1.67863,1.47386 -4.63884,2.48661 -7.29917,2.49721 l -1.08564,0.004 0.10599,-10.43799 c 0.11913,-11.68082 0.1679,-12.03913 1.88818,-13.7097 0.56749,-0.55154 0.80386,-0.9514 0.65097,-1.10411 -0.13132,-0.13132 -2.32782,-0.31516 -4.88019,-0.40709 -4.61464,-0.16696 -4.64147,-0.16415 -4.78227,0.37332 -0.10036,0.3827 0.0657,0.74852 0.56843,1.25091 1.43167,1.43166 1.54788,2.49572 1.43092,13.10564 -0.075,6.59474 -0.20074,9.84892 -0.41179,10.50833 -0.16883,0.52528 -0.70255,1.39282 -1.18544,1.92767 -1.49685,1.65687 -1.24696,1.84484 2.66475,2.00608 1.85469,0.075 5.28062,0.13226 7.61322,0.12476 l 4.24113,-0.009 0.90986,-2.75001 z m -272.43999,2.09379 c 0.10074,-0.38551 -0.0891,-0.74664 -0.69261,-1.31544 -0.45737,-0.43148 -0.97149,-1.2329 -1.14248,-1.78134 -0.40371,-1.29443 -0.6762,-16.76287 -0.29107,-16.52556 0.14155,0.0844 1.09033,1.4234 2.10843,2.96865 1.0181,1.54525 3.45566,5.11582 5.41691,7.93457 1.96125,2.81877 3.97746,5.99387 4.4806,7.05578 l 0.91473,1.93067 3.04566,0.007 c 2.77712,0.006 3.05899,-0.0375 3.19659,-0.46899 0.0929,-0.29359 -0.0863,-0.82543 -0.47021,-1.39076 -0.34162,-0.50371 -0.71128,-1.44254 -0.82159,-2.08704 -0.31133,-1.81942 -0.14352,-19.20447 0.19922,-20.64147 0.20308,-0.85169 0.58672,-1.51617 1.27089,-2.20034 0.71137,-0.711 0.93762,-1.11349 0.82534,-1.46721 -0.14436,-0.45493 -0.40765,-0.48682 -3.98215,-0.48682 -3.12427,0 -3.88564,0.0657 -4.14377,0.38083 -0.1739,0.20917 -0.27211,0.40614 -0.21809,0.4371 0.0544,0.0281 0.31752,0.17728 0.58559,0.32548 0.26808,0.14821 0.71813,0.57781 0.99999,0.95536 0.48926,0.65471 0.51609,1.07118 0.59019,9.16821 0.0431,4.66511 -0.0131,8.48133 -0.12504,8.4803 -0.19528,-0.002 -2.04003,-2.61277 -8.18388,-11.58327 -2.6397,-3.85431 -3.56156,-5.62824 -3.99848,-7.69463 -0.13498,-0.63784 -0.2027,-0.65942 -2.62057,-0.83107 -2.46832,-0.1754 -4.66998,-0.009 -4.90279,0.36582 -0.0666,0.10881 0.35625,1.19228 0.94062,2.40858 l 1.06246,2.21141 0.0722,8.1219 c 0.0441,4.95522 -0.0328,8.79986 -0.19735,9.86111 -0.3147,2.02813 -1.01614,3.74456 -1.91295,4.68105 -0.45155,0.47182 -0.58774,0.81606 -0.46974,1.1875 0.15964,0.50276 0.32473,0.5234 4.24516,0.5234 3.94858,0 4.08346,-0.0188 4.21788,-0.5309 z m 83.24873,0.0938 c 0.076,-0.24106 0.537,-1.50622 1.0256,-2.81248 0.4887,-1.30625 0.89016,-2.55987 0.89203,-2.78583 0.006,-0.69225 -0.65378,-0.71194 -1.53399,-0.0469 -1.90591,1.44713 -5.56004,2.57919 -8.32544,2.57919 h -1.06903 l -0.1194,-3.72101 c -0.0657,-2.04661 -0.0666,-4.35285 -0.003,-5.12501 0.10262,-1.2373 0.18066,-1.40398 0.65791,-1.40398 1.19669,0 3.57478,0.81511 4.47056,1.53231 1.52602,1.22173 1.67601,0.89109 1.67601,-3.6957 0,-4.5835 -0.11087,-4.75281 -1.9726,-3.01133 -1.16902,1.09342 -2.08066,1.50219 -4.08984,1.83387 l -0.93751,0.15477 v -3.24705 c 0,-1.78584 0.0713,-3.76905 0.15898,-4.40697 l 0.15899,-1.15992 1.52855,0.004 c 1.99868,0.005 4.42817,0.59093 5.91508,1.42659 1.80705,1.01585 1.98217,0.73726 1.51955,-2.41908 l -0.36817,-2.5112 -4.76893,0.002 c -4.29967,0.002 -8.26776,0.26827 -9.83017,0.66035 -0.79861,0.20072 -1.22577,1.03328 -0.72864,1.4204 0.20627,0.16039 0.63709,0.74195 0.95723,1.29199 0.57593,0.98921 0.58306,1.09717 0.6595,9.99994 0.0807,9.42495 -0.0638,11.38254 -0.96922,13.15816 -0.26922,0.5281 -0.7671,1.14135 -1.10637,1.36366 -0.49957,0.32735 -0.56861,0.49432 -0.36301,0.8789 0.24135,0.45117 0.655,0.47462 8.34102,0.47462 7.48293,0 8.09731,-0.0281 8.22441,-0.4371 z m 118.5998,-0.23075 c 0.30672,-0.46899 0.34987,-0.69786 0.14351,-0.76634 -0.68473,-0.22793 -1.65546,-1.20907 -1.99032,-2.01059 -0.25045,-0.60031 -0.40428,-2.35285 -0.50558,-5.77053 l -0.14539,-4.90889 2.22351,2.92185 c 1.22287,1.60706 3.67994,4.78517 5.46015,7.06252 l 3.23673,4.14068 h 3.8258 c 2.10419,0 3.82579,-0.0469 3.82579,-0.10506 0,-0.0563 0.0657,-0.27108 0.14257,-0.47556 0.0966,-0.25138 -0.30672,-0.66785 -1.25232,-1.2963 -1.52273,-1.0107 -6.73066,-6.32367 -7.96336,-8.12396 -0.61251,-0.89391 -3.56513,-4.90027 -4.73114,-6.41878 -0.15384,-0.19979 0.63783,-1.22764 2.47704,-3.216 3.4794,-3.7622 6.83994,-6.71228 8.57757,-7.52983 1.68379,-0.79261 1.57911,-0.69224 1.38101,-1.31657 -0.15946,-0.50182 -0.32548,-0.51871 -4.99228,-0.51871 -5.36822,0 -5.60357,0.0657 -5.09199,1.42115 0.25701,0.68099 0.19417,0.92112 -0.61157,2.36271 -0.76165,1.36244 -3.5548,4.68153 -5.86189,6.9661 l -0.63126,0.6247 0.14538,-3.25005 c 0.1754,-3.92784 0.46055,-4.90466 1.85573,-6.36109 1.74701,-1.82327 1.64149,-1.87851 -3.73997,-1.95684 -4.56765,-0.0657 -4.66932,-0.0563 -4.8345,0.46337 -0.12851,0.40521 0.0563,0.75884 0.76727,1.49009 0.87702,0.89861 0.94841,1.08911 1.13441,3.03638 0.10881,1.14275 0.20354,5.05907 0.20917,8.70279 0.0187,9.06186 -0.34799,11.36848 -2.05749,13.07843 -0.75602,0.75603 -0.93236,1.09427 -0.81511,1.56233 0.14913,0.59469 0.16602,0.5975 4.20915,0.67254 2.23261,0.0375 4.30979,0.10036 4.61605,0.13131 0.36582,0.0375 0.7063,-0.17258 0.99473,-0.6125 z m 52.13833,6.3e-4 c 0.23074,-0.50746 0.23356,-0.6913 0.009,-0.76541 -0.84231,-0.28045 -2.4385,-1.735 -3.16817,-2.88657 -0.45492,-0.71756 -2.18927,-4.68818 -3.85412,-8.82258 -2.98965,-7.42486 -6.47814,-15.86614 -6.61237,-16.00028 -0.0375,-0.0375 -0.75133,-0.14632 -1.58577,-0.24106 l -1.51664,-0.17165 -3.20916,7.96478 c -3.92231,9.73448 -5.91404,14.27718 -7.0159,15.99934 -0.78135,1.22211 -1.65481,2.14303 -3.48868,3.68031 -0.68379,0.57311 -0.71568,0.6641 -0.35643,1.02888 0.32923,0.33486 1.16498,0.40896 5.125,0.45305 4.67965,0.0563 4.73246,0.0469 4.80862,-0.48775 0.0562,-0.37332 -0.0938,-0.59375 -0.46055,-0.71194 -0.90235,-0.28609 -1.26986,-1.57105 -0.95732,-3.34573 l 0.2692,-1.52668 H 387.022 l 0.36206,0.86671 c 0.19886,0.4765 0.36207,1.372 0.36207,1.9893 0,0.97682 -0.11069,1.21038 -0.84982,1.80076 -0.74664,0.59562 -0.81793,0.74945 -0.58531,1.26066 l 0.26545,0.58249 h 10.67999 l 0.30391,-0.66785 z m -19.85637,-9.50093 c -0.37332,-0.0985 -0.34424,-0.32267 0.28328,-2.15851 0.38551,-1.12644 1.36806,-3.69015 2.1842,-5.69709 l 1.484,-3.64897 2.13731,5.83647 2.1374,5.83647 -3.90476,-0.0281 c -2.14763,-0.0187 -4.09228,-0.075 -4.32152,-0.13976 z m -329.310493,9.04707 c 3.003172,-1.45746 5.73198,-5.10991 6.719218,-8.99357 0.488413,-1.92129 0.493572,-6.55647 0.01032,-8.85569 -1.213482,-5.76884 -3.646729,-9.25433 -7.545214,-10.80849 -2.00102,-0.79729 -5.894628,-0.82168 -7.585923,-0.0469 -4.076704,1.8666 -6.81236,6.29449 -7.538273,12.2014 -0.945027,7.68977 3.148654,15.33431 9.106034,17.00488 2.092381,0.58624 5.038147,0.37051 6.834309,-0.50089 z m -5.652062,-2.77656 c -2.731154,-1.18112 -4.681054,-5.17978 -5.260545,-10.78786 -0.45277,-4.38155 0.173154,-8.33218 1.633608,-10.31228 2.044168,-2.77065 4.965452,-2.99595 7.640795,-0.58906 2.696166,2.42546 4.564273,9.90708 3.759568,15.0576 -0.411497,2.6335 -1.113115,4.08223 -2.66343,5.49916 -1.717558,1.56973 -3.291416,1.91829 -5.109996,1.13178 z m 27.249628,3.0966 c 1.393386,-0.42491 3.286915,-1.43616 4.437457,-2.36985 l 1.062461,-0.86201 v 3.03347 h 3.594389 c 2.935915,0 3.653108,-0.075 3.914808,-0.38645 0.268081,-0.32267 0.230562,-0.44929 -0.229338,-0.77103 -0.986773,-0.69131 -1.52021,-1.41431 -1.714185,-2.32397 -0.104868,-0.49151 -0.1906,-5.45002 -0.1906,-11.0186 0,-10.07311 0.0031,-10.13126 0.577518,-11.29719 0.317606,-0.6444 0.91708,-1.38738 1.331955,-1.65011 0.701055,-0.44368 0.725255,-0.50652 0.342087,-0.89016 -0.352406,-0.35269 -1.062936,-0.41272 -4.889756,-0.41272 h -4.477413 l -0.165556,0.65941 c -0.125787,0.50089 -0.03938,0.75602 0.360468,1.06247 1.213949,0.93049 1.295555,1.63089 1.295555,11.13116 v 8.86937 l -1.421998,1.15833 c -3.946883,3.21507 -7.359772,3.443 -8.77792,0.58625 -0.565143,-1.13854 -0.574524,-1.29397 -0.557168,-9.19984 0.01031,-4.75806 0.128693,-8.57269 0.289649,-9.34193 0.317794,-1.5189 1.029637,-2.79063 1.870729,-3.3417 0.328206,-0.2148 0.596762,-0.60312 0.596762,-0.86201 0,-0.43898 -0.253081,-0.47369 -3.687533,-0.50371 -5.216088,-0.0469 -6.132225,0.0188 -6.562483,0.45868 -0.311038,0.31798 -0.316385,0.40522 -0.03189,0.50933 0.188819,0.0657 0.671134,0.42116 1.071658,0.78229 1.344612,1.21189 1.475462,2.35858 1.401267,12.28114 -0.06003,7.97941 -0.02157,9.00398 0.379512,10.15283 1.377911,3.94717 5.746144,5.8981 10.179101,4.54627 z M 179.4487,206.94344 c 0.41113,-0.99691 0.95075,-2.46675 1.19913,-3.26638 0.59544,-1.91651 0.25795,-2.16189 -1.4203,-1.03245 -0.67245,0.45211 -1.81483,1.04399 -2.53859,1.31441 -1.54234,0.57592 -4.74267,1.13075 -5.81603,1.00777 l -0.75001,-0.0844 -0.0741,-4.12501 c -0.0403,-2.26872 -0.005,-4.50228 0.0788,-4.96349 l 0.15242,-0.83856 1.17127,0.16415 c 1.82984,0.25701 2.844,0.63127 3.85656,1.4248 0.7685,0.6022 1.02485,0.68475 1.43747,0.46432 0.42051,-0.22512 0.50202,-0.52153 0.50099,-1.82253 -0.002,-2.70179 -0.31563,-6.42871 -0.54066,-6.42871 -0.11903,0 -0.69271,0.49525 -1.27483,1.09941 -1.08244,1.12457 -2.91124,1.90066 -4.47863,1.90066 h -0.70462 v -8.50008 h 1.31262 c 1.67517,0 4.2433,0.55059 5.68743,1.21844 1.11321,0.51496 2.50182,0.70631 2.49815,0.34425 -0.002,-0.19323 -0.39358,-2.8182 -0.63426,-4.24995 l -0.13657,-0.81231 -5.92615,0.002 c -7.45563,0.002 -9.2366,0.15101 -9.43902,0.78885 -0.095,0.29922 0.0807,0.74101 0.48485,1.22211 0.88827,1.05562 1.1799,2.21386 1.31882,5.23757 0.16883,3.67608 -0.31311,16.67657 -0.6611,17.8303 -0.15843,0.52528 -0.67433,1.38279 -1.14641,1.90535 -1.77423,1.96378 -1.58756,2.01452 7.41829,2.01452 h 7.67673 z m 19.62281,-2.81258 c 7.40808,-19.59842 7.83609,-20.59738 9.515,-22.20698 1.02776,-0.98489 1.21095,-1.28383 0.99596,-1.62507 -0.22418,-0.3555 -0.83641,-0.42866 -4.1115,-0.48963 -4.25868,-0.0751 -4.97314,0.009 -4.97314,0.62282 0,0.22887 0.25316,0.68661 0.56251,1.01678 0.49704,0.52998 0.56063,0.85264 0.54675,2.76615 -0.015,2.00017 -0.14623,2.54862 -1.72037,7.16598 -2.96162,8.68703 -3.69832,10.66592 -3.89173,10.45487 -0.28834,-0.31423 -4.19705,-12.14701 -4.88723,-14.79496 -0.33542,-1.28693 -0.60922,-2.5807 -0.60847,-2.87504 0.002,-1.01782 0.54207,-2.47631 1.13535,-3.06959 0.33468,-0.33486 0.53297,-0.75883 0.45268,-0.96801 -0.11988,-0.31235 -0.93575,-0.37238 -5.06845,-0.37238 -6.09086,0 -6.37423,0.10693 -4.74052,1.79691 2.12127,2.19379 3.23419,4.55677 7.45554,15.82864 2.21395,5.91198 4.07755,10.89478 4.14124,11.073 0.0835,0.23262 0.59365,0.30297 1.80554,0.24951 l 1.6897,-0.0751 z m 70.04836,-0.63878 c 2.41993,-7.70035 3.47095,-10.74564 3.6397,-10.54678 0.0844,0.10223 1.26685,3.64456 2.62366,7.87276 l 2.46701,7.68741 h 2.88104 l 1.37914,-4.31242 c 1.65086,-5.16206 5.11656,-15.27334 6.19131,-18.06293 0.94672,-2.45726 2.16432,-4.35303 3.18018,-4.95166 0.90516,-0.53278 0.98911,-1.05534 0.20354,-1.26573 -1.10121,-0.29547 -8.82033,-0.17447 -9.13755,0.14257 -0.39396,0.39396 -0.38083,0.69974 0.0281,0.69974 0.1801,0 0.65848,0.34519 1.06257,0.76729 0.66315,0.69318 0.73069,0.91736 0.69504,2.31252 -0.0188,0.84982 -0.32173,2.44479 -0.66597,3.54477 -2.83133,9.0384 -3.4808,11.02705 -3.66221,11.21277 -0.11443,0.11724 -0.67347,-1.28927 -1.24311,-3.12493 -0.56937,-1.83574 -1.90554,-6.03758 -2.96904,-9.33762 -1.66306,-5.16018 -2.0073,-6.01066 -2.45913,-6.07585 -0.39677,-0.0563 -0.56655,0.0947 -0.69505,0.6247 -0.28515,1.1801 -5.72691,17.57424 -5.80683,17.49357 -0.10787,-0.10787 -1.43814,-4.45913 -2.64984,-8.66799 -1.15316,-4.00579 -1.30409,-5.84041 -0.59187,-7.19834 0.23731,-0.45306 0.71287,-0.95132 1.05599,-1.10787 0.42304,-0.19323 0.60032,-0.45118 0.5506,-0.80198 -0.075,-0.50089 -0.23262,-0.51965 -5.25004,-0.58437 -5.08636,-0.0657 -5.18099,-0.0563 -5.46586,0.47369 -0.23544,0.43991 -0.21668,0.58343 0.10036,0.75977 1.94887,1.0906 2.74795,2.60227 4.53744,8.58329 0.78135,2.6125 2.45596,7.89574 3.72074,11.74085 2.09332,6.36382 2.35483,7.00428 2.9165,7.14272 0.33955,0.0844 0.8911,0.0844 1.22643,-0.004 0.54591,-0.13976 0.76915,-0.6641 2.13703,-5.01761 z m 45.65586,4.71324 c 0.20636,-0.38459 0.21386,-0.57781 0.0281,-0.64065 -0.1482,-0.0469 -0.72788,-0.4221 -1.28833,-0.82825 -1.20335,-0.8714 -2.69289,-3.80844 -6.01348,-11.85623 -5.19731,-12.5963 -6.03166,-14.52013 -6.42553,-14.81279 -0.65941,-0.49057 -2.75835,-0.40427 -3.04087,0.12476 -0.12851,0.24106 -2.11499,5.04996 -4.41438,10.68748 -5.48332,13.44332 -5.99622,14.42352 -8.31728,15.89523 -0.64722,0.41085 -1.16602,0.85545 -1.15223,0.98799 0.009,0.1332 0.0375,0.35362 0.0657,0.49151 0.0281,0.15664 1.85684,0.24951 4.92043,0.24951 4.1916,0 4.90392,-0.0563 5.03233,-0.38927 0.0938,-0.242 -0.1407,-0.67348 -0.61533,-1.13807 -0.9574,-0.93612 -1.17727,-1.89718 -0.79729,-3.48332 l 0.29734,-1.23891 h 11.40975 l 0.41459,1.24959 c 0.51402,1.54844 0.33392,2.48699 -0.66598,3.46449 -0.5581,0.54591 -0.71381,0.87701 -0.59093,1.26309 0.16134,0.50933 0.30766,0.52247 5.5153,0.52247 5.25726,0 5.35444,-0.009 5.644,-0.55061 z m -19.7363,-9.41933 c -0.26452,-0.1679 0.006,-1.12043 1.29621,-4.5624 0.89672,-2.39263 1.87251,-4.91114 2.16808,-5.59662 l 0.53746,-1.24632 2.10401,5.60048 c 1.15721,3.08018 2.10393,5.69587 2.10393,5.81245 0,0.27672 -7.77231,0.26921 -8.20951,-0.008 z m 37.93055,8.90718 c 1.08028,-2.53483 1.86398,-5.10634 1.69251,-5.55338 -0.16227,-0.42398 -0.2692,-0.38177 -1.10908,0.43334 -1.45464,1.4129 -4.96264,2.66991 -7.47618,2.67881 -1.04708,0.004 -1.04727,0.004 -1.21264,-1.09913 -0.0938,-0.60688 -0.12193,-5.3596 -0.0657,-10.56274 0.0947,-9.24223 0.11069,-9.48967 0.67536,-10.76065 0.31798,-0.71569 0.84889,-1.47734 1.17812,-1.69327 0.33017,-0.21574 0.59938,-0.61532 0.59938,-0.88734 0,-0.47556 -0.18572,-0.49432 -4.97324,-0.49432 -4.2523,0 -4.99472,0.0563 -5.12135,0.38551 -0.0947,0.24576 0.16228,0.65848 0.70725,1.13666 1.63989,1.43992 1.66747,1.66794 1.58577,13.10377 -0.075,10.03089 -0.0844,10.27008 -0.62658,11.28311 -0.30484,0.56936 -0.84513,1.24744 -1.2011,1.5068 -0.43804,0.31891 -0.59469,0.60875 -0.48494,0.8939 0.17915,0.46806 1.24228,0.53184 10.56086,0.63502 l 4.82137,0.0562 z m -225.04322,-2.41853 c 0.96444,-2.74334 1.04867,-3.1493 0.72169,-3.47629 -0.32708,-0.32736 -0.48015,-0.27389 -1.31112,0.45587 -1.63334,1.434 -5.29667,2.73359 -7.744073,2.74719 l -0.780411,0.004 -0.101488,-3.43756 c -0.05625,-1.89061 -0.03844,-6.69998 0.0375,-10.68749 0.129819,-6.7617 0.174931,-7.31737 0.670193,-8.25001 0.292,-0.54966 0.823179,-1.27268 1.180269,-1.60604 0.3571,-0.33299 0.64938,-0.81136 0.64938,-1.06255 0,-0.42585 -0.31686,-0.45681 -4.71942,-0.45681 -4.095926,0 -4.764719,0.0562 -5.062531,0.41553 -0.278681,0.33768 -0.281868,0.43617 -0.01687,0.52528 0.619543,0.20823 1.285992,1.14228 1.720942,2.41111 0.387012,1.12906 0.434474,2.37377 0.420405,11.02235 -0.01781,10.75878 -0.03469,10.88822 -1.629016,12.53627 -1.091161,1.12757 -0.895874,1.67648 0.663261,1.86417 0.686331,0.0844 4.16412,0.13883 7.728409,0.12475 l 6.48058,-0.0281 1.09193,-3.10607 z m 17.0105,2.91858 c 0.13723,-0.17166 0.68351,-1.63972 1.21385,-3.26179 0.80057,-2.44853 0.90432,-2.98628 0.6112,-3.1675 -0.24416,-0.15103 -0.6672,0.0375 -1.37079,0.60688 -1.92766,1.56251 -4.90963,2.61878 -7.42664,2.63078 l -0.90891,0.004 -0.18508,-7.15679 c -0.25607,-9.90426 -0.11387,-13.34577 0.62124,-15.03603 0.31535,-0.72506 0.90704,-1.59909 1.31497,-1.9423 0.44639,-0.3752 0.68511,-0.77103 0.59956,-0.99427 -0.11837,-0.3086 -0.91313,-0.37051 -4.76612,-0.37051 -4.3158,0 -4.64129,0.0281 -4.88282,0.48401 -0.34246,0.63971 -0.32689,0.76633 0.094,0.76633 0.54919,0 1.60378,1.41216 1.92213,2.57386 0.37117,1.35474 0.13685,20.10306 -0.26845,21.47628 -0.16284,0.55154 -0.67564,1.26976 -1.26995,1.77843 -1.58699,1.3585 -1.24678,1.63962 2.09979,1.73501 7.91047,0.22512 12.35712,0.18103 12.60193,-0.12569 z m -98.770639,-0.49058 c 0.21011,-0.47087 0.134415,-0.62845 -0.510831,-1.0634 -1.596651,-1.07597 -1.775902,-1.74983 -1.864073,-7.00878 l -0.07973,-4.74999 2.676374,-4.75 c 3.668959,-6.51154 5.017511,-8.24392 7.243837,-9.30554 0.841755,-0.40147 1.102798,-0.89203 0.63005,-1.1845 -1.075596,-0.66503 -8.365301,-0.63877 -8.622218,0.0281 -0.07222,0.18854 0.104493,0.79448 0.392738,1.34799 0.394426,0.75697 0.485036,1.25035 0.366005,1.99455 -0.140793,0.88078 -3.250521,7.49137 -3.523945,7.49137 -0.166869,0 -2.507629,-4.02502 -3.235137,-5.56286 -0.353998,-0.74852 -0.643182,-1.68698 -0.642619,-2.08628 0.0012,-0.92392 0.806017,-2.25588 1.496005,-2.47489 0.317417,-0.10037 0.499293,-0.33581 0.451456,-0.58532 -0.07129,-0.37238 -0.712874,-0.42303 -6.059058,-0.48306 -6.0293238,-0.0657 -6.3740359,-0.0281 -6.3849165,0.81699 -0.00175,0.13789 0.6189811,0.57499 1.3795057,0.97242 2.0321608,1.0619 3.1647868,2.51372 6.4286268,8.24102 l 2.937512,5.15455 v 3.20756 c 0,4.7455 -0.692333,7.51745 -2.222949,8.9007 -0.519273,0.469 -0.686329,1.15618 -0.360377,1.48204 0.09192,0.0938 2.211975,0.16696 4.711819,0.16696 4.448994,0 4.55039,-0.009 4.79183,-0.55248 z m 58.980043,-20.65366 c 1.568698,-1.13675 2.957121,-3.19002 3.961613,-5.85889 l 0.617856,-1.64139 -2.142748,-0.17822 c -1.574329,-0.13132 -2.192465,-0.0985 -2.330259,0.12475 -0.103175,0.16696 -0.250725,1.05749 -0.328012,1.97926 -0.161337,1.92401 -0.908261,4.08636 -1.704335,4.93374 -0.453237,0.48214 -0.492818,0.64816 -0.230088,0.96501 0.464869,0.55999 1.058899,0.47088 2.156066,-0.32454 z M 273.09227,156.94317 c 0.30579,-2.6095 -0.63314,-6.25745 -2.15897,-8.38725 -2.08207,-2.90619 -4.32837,-2.12456 -4.62816,1.61053 -0.12944,1.61221 0.0188,2.19434 1.15984,4.55386 0.54497,1.12755 2.32922,2.6714 3.61211,3.12595 1.73472,0.61439 1.84297,0.56655 2.01518,-0.90328 z m 6.78506,0.30954 c 2.00553,-0.95723 3.71643,-2.79936 4.24124,-4.56672 0.72694,-2.44638 0.32173,-5.04124 -0.88735,-5.68826 -0.71943,-0.38553 -2.27491,-0.1726 -3.06639,0.41928 -1.00515,0.75133 -2.12239,2.60461 -2.53464,4.20398 -0.21762,0.84514 -0.38364,2.54956 -0.38364,3.93751 0,2.32219 0.0281,2.44741 0.52621,2.44741 0.28984,0 1.23684,-0.33862 2.10457,-0.7532 z m -51.80439,0.13038 c 0.78791,-0.20543 2.02053,-0.66974 2.74006,-1.03274 1.39367,-0.70349 4.76406,-3.91734 5.04912,-4.81537 0.18947,-0.59563 0.39865,-0.33205 -5.11647,-6.42488 -1.85657,-2.05101 -3.71782,-4.14855 -4.13607,-4.66126 l -0.76053,-0.93236 -1.89174,1.93217 c -2.85572,2.91678 -8.18568,8.97809 -8.49841,9.66508 -0.36188,0.79448 0.30513,1.90168 2.17455,3.61014 1.43326,1.30991 3.08815,2.07766 5.73789,2.66194 2.00627,0.44273 2.99585,0.44179 4.7016,-0.002 z m 35.86978,-12.78766 c 0.45398,-0.83294 1.72571,-1.79438 2.74869,-2.0785 2.10701,-0.58531 4.00907,-0.13507 5.49223,1.30071 l 0.8123,0.78604 v -11.52605 l -2.29752,-0.32923 c -2.14415,-0.30767 -2.31525,-0.29922 -2.5625,0.11912 -1.26076,2.13252 -1.88565,2.67318 -2.57751,2.23026 -0.34143,-0.21855 -0.43711,-0.62939 -0.43711,-1.86425 v -1.58419 l -1.51288,-0.63408 c -0.832,-0.34893 -1.81249,-0.83106 -2.17868,-1.07194 -0.36582,-0.24012 -0.78041,-0.4371 -0.92017,-0.4371 -0.47838,0 -0.57874,1.29724 -0.45305,5.83469 0.11162,4.0511 0.21011,4.85955 0.90703,7.50347 0.43055,1.62976 1.01867,3.48605 1.30813,4.12502 l 0.52622,1.16179 0.42584,-1.49994 c 0.2345,-0.82544 0.55811,-1.74101 0.71851,-2.03554 z m 25.66817,-0.39771 c 0.33674,-1.32726 0.78604,-3.66099 0.99887,-5.18607 0.42209,-3.02259 0.51589,-8.91468 0.15195,-9.48967 -0.18948,-0.29922 -0.38739,-0.25045 -1.18365,0.29359 -0.52621,0.35925 -1.5188,0.90141 -2.20625,1.20428 -0.68755,0.30298 -1.41872,0.63222 -1.62498,0.73164 -0.20637,0.0994 -0.40522,0.5628 -0.44273,1.03021 -0.11819,1.4914 -0.3011,1.95899 -0.92393,2.36739 -0.87515,0.57311 -1.52095,0.25607 -2.26421,-1.10927 l -0.64628,-1.18788 -4.09753,0.52904 -0.0657,6.18746 c -0.0375,3.86669 0.0281,6.18747 0.1754,6.18747 0.1332,0 0.66691,-0.50839 1.18694,-1.13056 1.34498,-1.60903 2.69185,-2.20241 4.70797,-2.07399 2.05355,0.13038 3.18214,0.96097 4.24685,3.12379 0.94625,1.92214 1.16893,1.75677 1.9894,-1.47753 z m -71.42158,-6.78066 2.806,-3.21394 -1.77806,-2.036 c -2.65283,-3.03778 -7.98007,-8.66105 -8.20518,-8.66105 -0.43805,0 -0.8245,3.13608 -0.93968,7.62494 -0.1257,4.8982 0.10308,7.39167 1.06724,11.63017 l 0.42022,1.84776 1.91163,-1.9892 c 1.0514,-1.09399 3.17436,-3.43531 4.71773,-5.20305 z m 22.33173,3.78931 c 0.75039,-3.39291 0.93142,-10.58338 0.36488,-14.43853 -0.23169,-1.57489 -0.50465,-3.01245 -0.60688,-3.19451 -0.12945,-0.23075 -0.93612,0.48025 -2.67957,2.36354 -4.95926,5.35707 -6.85298,7.5622 -6.85298,7.97998 0,0.46618 1.01848,1.6987 5.71932,6.92323 2.43381,2.70498 3.15879,3.37518 3.3266,3.0753 0.11818,-0.21104 0.44554,-1.42987 0.72881,-2.70873 z m 39.60862,-12.82706 c 3.60189,-0.69598 5.87061,-1.86369 6.68498,-3.44177 0.41741,-0.80949 0.44273,-1.0499 0.17822,-1.68867 -0.34424,-0.83106 -1.68839,-2.11095 -2.48053,-2.36233 -1.4309,-0.454 0.17822,-1.4553 2.38917,-1.48635 1.44497,-0.0187 1.54149,-0.14257 1.02607,-1.30268 -1.49113,-3.35474 -5.58425,-7.90475 -8.30668,-9.23388 -1.35962,-0.6641 -1.73397,-0.73163 -4.00007,-0.7232 -1.98507,0.007 -2.78311,0.12288 -3.87494,0.56186 -1.77618,0.71475 -4.03599,2.42424 -5.42217,4.10147 -1.03676,1.25447 -3.07745,4.9299 -3.0782,5.544 -1.9e-4,0.18479 0.45774,0.25795 1.31253,0.21105 0.97729,-0.0562 1.52039,0.0563 2.1253,0.43429 1.04858,0.65378 1.0241,0.90517 -0.12475,1.28411 -1.52574,0.50277 -2.53399,1.28787 -3.0768,2.39639 -0.4615,0.94184 -0.4765,1.12174 -0.15946,1.87974 0.5506,1.31788 2.54946,2.64457 5.3792,3.57047 2.57817,0.84325 7.7829,0.96031 11.4285,0.25607 z m -6.13354,-2.59374 c -1.21357,-0.25888 -1.8076,-0.61907 -2.70339,-1.63932 -1.07043,-1.2193 -1.19613,-2.20007 -0.56842,-4.43689 0.28702,-1.02298 0.52152,-2.3357 0.52152,-2.91726 0,-0.91548 -0.15946,-1.22886 -1.1875,-2.33513 l -1.18749,-1.27782 1.12503,0.15007 c 2.98253,0.39771 5.83778,0.46431 8.34063,0.19323 1.49356,-0.16134 2.76623,-0.24294 2.82814,-0.18104 0.0657,0.0657 -0.40053,0.69037 -1.02814,1.39696 -0.98489,1.10898 -1.1406,1.43381 -1.1406,2.37875 0,0.60219 0.22325,1.80751 0.49714,2.67909 0.62376,1.98986 0.62471,2.49197 0.006,3.70526 -0.97401,1.90928 -3.10767,2.79484 -5.50227,2.28382 z m -44.68503,-1.09172 c 4.61708,-5.24366 7.68582,-8.95418 7.67897,-9.2851 -0.003,-0.15289 -0.59376,-0.98123 -1.31244,-1.84128 -3.6608,-4.38099 -8.01168,-6.40095 -12.00256,-5.57233 -3.23467,0.6716 -7.27432,3.6003 -8.84752,6.41465 l -0.54366,0.97251 2.91866,3.4187 c 4.66154,5.46015 8.40506,9.68853 8.58526,9.69697 0.0919,0.004 1.67723,-1.70762 3.52366,-3.8044 z m 22.76133,-28.983044 c 7.29148,-4.920894 12.50813,-9.917393 17.48793,-16.748791 2.52236,-3.460633 4.12174,-6.199198 6.35387,-10.878842 3.79718,-7.961684 5.30669,-12.616942 5.9784,-18.438125 0.37238,-3.225194 0.41834,-8.159787 0.075,-8.497369 -0.0844,-0.08442 -1.5779,0.242939 -3.32378,0.721316 -7.70974,2.113016 -14.93473,2.197904 -20.44262,0.240126 -2.61859,-0.930489 -3.85834,-1.693359 -5.73545,-3.528354 l -1.65096,-1.61391 -0.82262,1.038076 c -1.14341,1.443759 -3.95017,3.349104 -6.21786,4.221249 -1.04943,0.403337 -3.08318,0.984424 -4.51962,1.290959 -2.27698,0.485881 -3.09416,0.539346 -6.37507,0.420222 -3.93488,-0.142575 -6.79726,-0.720379 -11.3741,-2.294894 -1.1331,-0.390205 -1.95093,-0.550601 -2.09097,-0.409902 -0.68577,0.685672 -0.36563,7.309776 0.59956,12.408706 0.77732,4.105781 3.9255,12.606622 6.61585,17.865008 3.25784,6.367098 8.972,13.697508 14.30158,18.347139 2.77167,2.418053 8.75522,6.869385 9.26127,6.889647 0.17915,0.0071 1.02316,-0.457737 1.87496,-1.032167 z m -0.008,-7.66499 c 0.13132,-0.523399 0.0844,-0.568424 -0.48494,-0.426787 -0.45493,0.114437 -0.6022,0.06566 -0.52528,-0.165087 0.0563,-0.178219 0.35081,-0.359256 0.6491,-0.403343 0.29828,-0.04687 0.54309,-0.241063 0.54309,-0.4371 0,-0.429599 0.63784,-0.457743 1.73163,-0.07504 1.21226,0.422099 1.37903,0.02812 0.66973,-1.572073 -0.33581,-0.758837 -0.80761,-2.325372 -1.04971,-3.48164 -0.242,-1.156267 -0.47368,-2.146409 -0.51496,-2.200247 -0.0375,-0.05625 -0.30203,0.170713 -0.58062,0.49995 l -0.50557,0.597499 0.15196,-1.036855 c 0.18853,-1.283173 -0.2814,-2.836871 -0.86015,-2.841559 -0.22981,-0.0019 -0.6716,-0.07504 -0.98058,-0.153831 -0.469,-0.125693 -0.5628,-0.04687 -0.5628,0.4493 0,0.330168 0.15196,1.186748 0.33862,1.904222 0.36394,1.404173 0.35738,1.426779 -0.32454,1.062086 -0.39115,-0.209175 -0.47275,-0.115375 -0.60219,0.692237 -0.0947,0.590936 -0.79542,1.853197 -1.9045,3.429776 -0.96529,1.372374 -1.71869,2.607803 -1.67414,2.745309 0.0469,0.137888 0.66316,0.284213 1.37379,0.325487 1.11312,0.06566 1.29283,0.147263 1.29283,0.589062 0,0.397712 -0.0985,0.469 -0.4371,0.316106 -0.24106,-0.108806 -1.53794,-0.243881 -2.88283,-0.300156 -1.99492,-0.08443 -2.56381,-0.02813 -3.08918,0.318912 -0.42023,0.275769 -0.72883,0.336744 -0.88922,0.177281 -0.1604,-0.160393 -0.15102,-0.302968 0.0281,-0.412712 0.14915,-0.0938 0.27202,-0.386455 0.27202,-0.652849 0,-0.563737 1.00188,-0.663161 2.17128,-0.215737 0.64721,0.247625 0.77008,0.193225 1.51916,-0.66973 0.88266,-1.017249 3.30972,-5.749049 3.30972,-6.453479 0,-0.388331 -0.0657,-0.37895 -0.65848,0.08442 -0.95337,0.749455 -1.05336,0.656593 -0.71475,-0.669724 0.76165,-2.983009 0.78229,-2.880302 -0.7232,-3.618876 -3.01958,-1.480899 -4.48209,-3.610521 -4.51098,-6.568573 -0.0281,-2.889303 1.1375,-4.690431 5.21636,-8.058765 2.41298,-1.992671 2.86857,-2.559782 2.88264,-3.588666 0.0187,-1.027008 -1.87421,-1.584926 -3.36618,-0.994648 -0.55247,0.218553 -1.12503,0.08442 -1.12503,-0.259824 0,-0.122877 0.15571,-0.223242 0.34612,-0.223242 0.34143,0 0.75134,-0.986393 0.50933,-1.227833 -0.0657,-0.06566 -0.47087,0.0061 -0.8939,0.166025 -0.7504,0.283274 -0.75884,0.278584 -0.33205,-0.192288 0.24012,-0.265452 0.65565,-0.552478 0.92204,-0.636898 0.28609,-0.0938 0.4296,-0.299219 0.34987,-0.506515 -0.075,-0.194165 -0.0375,-0.352686 0.0844,-0.352686 0.11819,0 0.28047,0.168839 0.35926,0.375198 0.21762,0.567485 1.32538,0.473686 1.48203,-0.124753 0.1829,-0.699743 1.7017,-0.663161 4.67195,0.110683 1.67094,0.435228 2.47386,0.540283 2.79925,0.366755 0.3086,-0.165087 0.45586,-0.158521 0.45586,0.01876 0,0.385515 -1.12633,0.75227 -2.3099,0.75227 h -1.02728 l 0.54403,0.578742 c 1.0227,1.088635 0.75977,2.149129 -1.07953,4.352192 -2.26939,2.71821 -2.92101,4.020235 -2.82683,5.648121 0.0657,1.104486 0.14914,1.296117 0.57499,1.296117 0.52058,0 0.61625,-0.222306 1.49543,-3.500021 0.38553,-1.435693 0.55624,-1.650024 3.99942,-4.999972 1.97833,-1.925042 4.04904,-4.15784 4.60151,-4.961794 1.24369,-1.809669 1.88077,-3.629187 1.64562,-4.699812 l -0.1726,-0.786976 0.80668,0.574051 c 0.98048,0.697867 1.42021,1.688575 1.67976,3.783957 l 0.19698,1.590836 0.69223,-1.178776 c 0.38083,-0.648152 1.04474,-2.247055 1.47603,-3.552741 0.43148,-1.305686 0.87046,-2.320875 0.97523,-2.255967 0.27858,0.171654 0.97992,3.425832 0.97833,4.53679 -0.002,1.442539 -0.41928,2.654145 -1.40896,4.093025 -0.67255,0.978139 -0.94475,1.685386 -1.08826,2.830769 -0.10694,0.857325 -0.64347,2.582387 -1.22136,3.932253 -0.56655,1.322945 -1.03001,2.486993 -1.03001,2.586699 0,0.09943 -0.6172,1.127561 -1.37078,2.284197 -0.75415,1.156643 -1.44123,2.383635 -1.52725,2.726559 -0.14913,0.593749 -1.21582,1.683792 -1.90524,1.947366 -0.21668,0.08442 -0.11819,0.269206 0.30297,0.571237 2.8711,2.057491 4.09087,5.223493 3.13655,8.141121 -0.7504,2.294522 -1.01107,2.388697 -1.01482,0.366756 -0.006,-3.019303 -1.52086,-5.504325 -4.73395,-7.763103 -2.27116,-1.596566 -2.41739,-1.592716 -0.72507,0.01875 0.84514,0.805737 1.70462,1.869979 1.90929,2.365241 0.53747,1.302123 0.76728,2.890146 0.44648,3.088627 -0.15758,0.09755 -0.26732,-0.04687 -0.26732,-0.359249 0,-0.731643 -0.89485,-2.411022 -1.38486,-2.598997 -0.76446,-0.293593 -0.86483,-0.153831 -0.86483,1.20288 0,1.631172 0.31048,2.534459 1.18769,3.453783 0.54591,0.57218 0.58249,0.687549 0.21762,0.687549 -0.24107,0 -0.65566,-0.116306 -0.92206,-0.258881 -0.43241,-0.231687 -0.48306,-0.172594 -0.48212,0.562793 0.002,1.081411 0.89203,4.766406 1.3782,5.705805 0.21104,0.407093 0.52058,0.758843 0.68848,0.781355 0.16884,0.01875 -0.77947,0.106931 -2.10514,0.1876 -1.91838,0.116312 -2.52686,0.248568 -2.97681,0.646274 l -0.56561,0.499949 0.14726,-0.585305 z m 6.6817,-0.06566 -0.87514,-0.468999 1.02081,-4.69e-4 c 1.13797,-4.69e-4 1.38288,0.133193 1.18515,0.649093 -0.16227,0.42303 -0.22137,0.41553 -1.33101,-0.180094 z m -18.99998,-0.205425 c 0,-0.129443 0.11068,-0.303906 0.24669,-0.388324 0.14164,-0.08442 0.18384,0.0094 0.0985,0.235431 -0.16603,0.433355 -0.34518,0.512143 -0.34518,0.152893 z m 3.4201,-27.927796 c -0.47086,-0.470873 -0.12193,-1.316661 0.76728,-1.857883 0.69412,-0.422096 0.82731,-0.594687 0.51309,-0.665037 -0.23357,-0.05628 -0.64815,0.02814 -0.92111,0.170715 -0.27296,0.146327 -0.75696,0.260762 -1.0756,0.255134 -0.49525,-0.0094 -0.44554,-0.08442 0.33862,-0.496198 0.85451,-0.452112 0.99192,-0.458678 1.99998,-0.105055 1.81756,0.637835 2.46186,0.97298 2.37556,1.235712 -0.1557,0.474624 -1.1421,0.412716 -1.57995,-0.09849 -0.32267,-0.377073 -0.51684,-0.438042 -0.75884,-0.237312 -0.17822,0.148203 -0.27295,0.351747 -0.21105,0.45305 0.15852,0.256072 -1.23974,1.555662 -1.44873,1.34677 z"
     fill="#082536"
     stroke-width="0.624999"
     id="path823" />
</svg>
